<svg width="14" height="14" viewBox="0 0 14 14" fill="none" xmlns="http://www.w3.org/2000/svg">
<g clip-path="url(#clip0_25_2363)">
<path d="M13.5749 5.49445C13.0483 4.63212 12.384 3.86185 11.6085 3.2142L13.2418 1.58087C13.3481 1.47085 13.4069 1.3235 13.4055 1.17055C13.4042 1.0176 13.3429 0.871294 13.2347 0.76314C13.1266 0.654985 12.9803 0.593636 12.8273 0.592307C12.6744 0.590978 12.527 0.649775 12.417 0.756034L10.6407 2.53462C9.53963 1.8806 8.28081 1.53972 7.00015 1.54878C3.38874 1.54878 1.33074 4.02095 0.425402 5.49445C0.14571 5.94683 -0.00244141 6.46817 -0.00244141 7.00003C-0.00244141 7.53189 0.14571 8.05324 0.425402 8.50562C0.95201 9.36794 1.61627 10.1382 2.39182 10.7859L0.758485 12.4192C0.702771 12.473 0.658331 12.5374 0.62776 12.6085C0.597188 12.6797 0.581096 12.7563 0.580423 12.8337C0.579749 12.9112 0.594509 12.988 0.623839 13.0597C0.65317 13.1314 0.696484 13.1965 0.751255 13.2513C0.806026 13.306 0.871156 13.3493 0.942845 13.3787C1.01453 13.408 1.09135 13.4228 1.1688 13.4221C1.24626 13.4214 1.3228 13.4053 1.39397 13.3748C1.46514 13.3442 1.52951 13.2997 1.58332 13.244L3.36365 11.4637C4.46339 12.1176 5.72071 12.4591 7.00015 12.4513C10.6116 12.4513 12.6696 9.97912 13.5749 8.50562C13.8546 8.05324 14.0027 7.53189 14.0027 7.00003C14.0027 6.46817 13.8546 5.94683 13.5749 5.49445ZM1.4194 7.89487C1.25323 7.62598 1.16521 7.31613 1.16521 7.00003C1.16521 6.68394 1.25323 6.37409 1.4194 6.1052C2.19757 4.8417 3.95632 2.71545 7.00015 2.71545C7.96864 2.71002 8.92354 2.94344 9.78032 3.39503L8.60607 4.56928C8.04603 4.19747 7.3746 4.03086 6.7057 4.09774C6.03681 4.16462 5.41166 4.46086 4.93632 4.9362C4.46098 5.41154 4.16474 6.03669 4.09786 6.70559C4.03098 7.37448 4.19759 8.04591 4.5694 8.60595L3.2219 9.95345C2.50738 9.37579 1.89764 8.67942 1.4194 7.89487ZM8.75015 7.00003C8.75015 7.46416 8.56578 7.90928 8.23759 8.23747C7.9094 8.56566 7.46428 8.75003 7.00015 8.75003C6.74028 8.74903 6.48402 8.6892 6.25057 8.57503L8.57515 6.25045C8.68932 6.4839 8.74915 6.74017 8.75015 7.00003ZM5.25015 7.00003C5.25015 6.5359 5.43453 6.09079 5.76271 5.7626C6.0909 5.43441 6.53602 5.25003 7.00015 5.25003C7.26002 5.25104 7.51629 5.31087 7.74973 5.42503L5.42515 7.74962C5.31099 7.51617 5.25116 7.2599 5.25015 7.00003ZM12.5809 7.89487C11.8027 9.15837 10.044 11.2846 7.00015 11.2846C6.03166 11.29 5.07676 11.0566 4.21999 10.605L5.39424 9.43078C5.95427 9.8026 6.62571 9.9692 7.2946 9.90232C7.96349 9.83544 8.58865 9.5392 9.06398 9.06387C9.53932 8.58853 9.83556 7.96337 9.90244 7.29448C9.96932 6.62559 9.80272 5.95416 9.4309 5.39412L10.7784 4.04662C11.4929 4.62428 12.1027 5.32064 12.5809 6.1052C12.7471 6.37409 12.8351 6.68394 12.8351 7.00003C12.8351 7.31613 12.7471 7.62598 12.5809 7.89487Z" fill="#9E9E9E"/>
</g>
<defs>
<clipPath id="clip0_25_2363">
<rect width="14" height="14" fill="white"/>
</clipPath>
</defs>
</svg>
