<svg width="16" height="16" viewBox="0 0 16 16" fill="none" xmlns="http://www.w3.org/2000/svg">
<path fill-rule="evenodd" clip-rule="evenodd" d="M8.554 3.79205L9.72333 6.25872L12.118 6.51272C12.3659 6.53677 12.5746 6.70855 12.6459 6.94723C12.7172 7.18592 12.6368 7.44399 12.4427 7.60005L10.5333 9.17005L11.124 11.8094C11.178 12.0492 11.0834 12.2981 10.8837 12.4415C10.6841 12.5849 10.418 12.5951 10.208 12.4674L8 11.1241L5.79 12.4667C5.57986 12.5942 5.31394 12.5839 5.11429 12.4406C4.91464 12.2972 4.81981 12.0486 4.87334 11.8087L5.46667 9.17005L3.55734 7.60005C3.36457 7.44359 3.28529 7.18626 3.35658 6.94845C3.42786 6.71063 3.63562 6.53935 3.88267 6.51472L6.27667 6.26072L7.446 3.79205C7.5476 3.57818 7.76323 3.44189 8 3.44189C8.23678 3.44189 8.4524 3.57818 8.554 3.79205Z" fill="white"/>
</svg>
