<svg width="26" height="26" viewBox="0 0 26 26" fill="none" xmlns="http://www.w3.org/2000/svg">
<path fill-rule="evenodd" clip-rule="evenodd" d="M16.2501 18.9952C16.2535 18.5784 16.0987 18.1757 15.8168 17.8686L11.2105 13.0001L15.8168 8.13162C16.402 7.49657 16.402 6.51875 15.8168 5.88371C15.5439 5.58593 15.1585 5.41638 14.7546 5.41638C14.3507 5.41638 13.9653 5.58593 13.6924 5.88371L8.02442 11.8767C7.43651 12.5094 7.43651 13.4886 8.02442 14.1213L13.687 20.1165C13.9599 20.4143 14.3453 20.5838 14.7492 20.5838C15.1531 20.5838 15.5385 20.4143 15.8114 20.1165C16.0929 19.8113 16.2478 19.4104 16.2447 18.9952" fill="#C1C7D0"/>
</svg>
