<svg width="24" height="24" viewBox="0 0 24 24" fill="none" xmlns="http://www.w3.org/2000/svg">
<path fill-rule="evenodd" clip-rule="evenodd" d="M12.373 5.06721L17.758 7.05421C18.1825 7.20963 18.4651 7.61317 18.466 8.06521V11.0472C18.5712 14.8694 15.9191 18.2162 12.174 18.9872C12.0615 19.0059 11.9466 19.0059 11.834 18.9872C8.08897 18.2162 5.43681 14.8694 5.54202 11.0472V8.06521C5.54171 7.61521 5.8207 7.21227 6.24202 7.05421L11.627 5.06721C11.8677 4.97825 12.1323 4.97825 12.373 5.06721ZM11.811 13.8442L14.824 10.5692L14.832 10.5732C14.9973 10.3667 15.0398 10.0877 14.9436 9.84139C14.8473 9.59505 14.627 9.41874 14.3656 9.37889C14.1041 9.33905 13.8413 9.44171 13.676 9.64821L11.176 12.2772L10.276 11.3772C9.9869 11.0881 9.51815 11.0881 9.22902 11.3772C8.9399 11.6663 8.9399 12.1351 9.22902 12.4242L10.71 13.9002C10.8482 14.0401 11.0364 14.1193 11.233 14.1202H11.274C11.4843 14.1092 11.6797 14.0088 11.811 13.8442Z" fill="#00875A"/>
</svg>
