<svg width="42" height="42" viewBox="0 0 42 42" fill="none" xmlns="http://www.w3.org/2000/svg">
<rect width="42" height="42" rx="5" fill="#D9D9D9"/>
<path d="M10.9336 22.8592L12.7493 24.1516C13.6785 24.8123 14.7766 25.1491 15.8748 25.1491C16.6562 25.1491 17.4384 24.9785 18.1603 24.6329L29.4942 19.6471C30.7945 19.0259 31.3606 17.4561 30.7551 16.1471C30.1479 14.8372 28.5895 14.2641 27.2761 14.8652L24.5259 16.092L18.7343 12.5167C17.9625 11.9427 16.9405 11.8394 16.0638 12.2446L15.3804 12.5648C14.8458 12.8159 14.4765 13.3147 14.3925 13.8992C14.3085 14.4846 14.522 15.0673 14.9648 15.4593L18.6433 18.7144L15.5012 20.1161L12.8263 19.1344C11.9653 18.8202 11.0028 19.0985 10.4331 19.8265C10.0901 20.2649 9.94662 20.817 10.0289 21.3805C10.1155 21.9729 10.4445 22.511 10.9328 22.8575L10.9336 22.8592ZM16.125 14.1495L16.804 13.831C17.0945 13.6962 17.4349 13.7321 17.7534 13.9631L22.5931 16.9538L20.4003 17.9321L16.125 14.1495ZM11.8121 20.9062C11.8979 20.7969 12.0081 20.7584 12.1044 20.7584C12.1481 20.7584 15.2317 21.8827 15.2317 21.8827C15.446 21.9615 15.6823 21.9536 15.8897 21.8609L27.9936 16.4612L28.005 16.456C28.4433 16.2538 28.964 16.4455 29.167 16.8821C29.3717 17.3257 29.181 17.8568 28.7645 18.0563L17.4305 23.0421C16.2432 23.6083 14.837 23.4884 13.7634 22.7254L11.9478 21.4339C11.848 21.363 11.7789 21.2492 11.7614 21.1294C11.7483 21.0401 11.7658 20.9657 11.8121 20.9062ZM31.0001 29.4997C31.0001 29.9835 30.6081 30.3747 30.1251 30.3747H10.875C10.392 30.3747 10 29.9835 10 29.4997C10 29.0158 10.392 28.6247 10.875 28.6247H30.1251C30.6081 28.6247 31.0001 29.0158 31.0001 29.4997Z" fill="black"/>
</svg>
