<svg width="24" height="24" viewBox="0 0 24 24" fill="none" xmlns="http://www.w3.org/2000/svg">
<path fill-rule="evenodd" clip-rule="evenodd" d="M12.831 5.68783L14.585 9.38783L18.177 9.76883C18.5489 9.80492 18.8619 10.0626 18.9688 10.4206C19.0757 10.7786 18.9552 11.1657 18.664 11.3998L15.8 13.7548L16.686 17.7138C16.7669 18.0736 16.625 18.4468 16.3255 18.662C16.0261 18.8771 15.627 18.8924 15.312 18.7008L12 16.6858L8.68497 18.6998C8.36977 18.891 7.97088 18.8756 7.6714 18.6606C7.37192 18.4456 7.22968 18.0726 7.30997 17.7128L8.19997 13.7548L5.33597 11.3998C5.04683 11.1651 4.92791 10.7791 5.03484 10.4224C5.14176 10.0657 5.4534 9.80878 5.82397 9.77183L9.41497 9.39083L11.169 5.68783C11.3214 5.36703 11.6448 5.1626 12 5.1626C12.3551 5.1626 12.6786 5.36703 12.831 5.68783Z" fill="#C1C7D0"/>
</svg>
