<svg width="26" height="26" viewBox="0 0 26 26" fill="none" xmlns="http://www.w3.org/2000/svg">
<path fill-rule="evenodd" clip-rule="evenodd" d="M13.9003 6.16165L15.8004 10.17L19.6918 10.5827C20.0947 10.6218 20.4338 10.901 20.5496 11.2888C20.6654 11.6767 20.5349 12.0961 20.2194 12.3497L17.1167 14.9009L18.0765 19.1898C18.1642 19.5796 18.0105 19.9839 17.6861 20.217C17.3616 20.45 16.9293 20.4666 16.588 20.2591L13 18.0762L9.40875 20.258C9.06728 20.4651 8.63515 20.4484 8.31072 20.2155C7.98628 19.9826 7.83219 19.5785 7.91917 19.1888L8.88333 14.9009L5.78066 12.3497C5.46742 12.0954 5.33859 11.6773 5.45443 11.2908C5.57027 10.9044 5.90788 10.626 6.30933 10.586L10.1996 10.1732L12.0998 6.16165C12.2649 5.81411 12.6153 5.59264 13 5.59264C13.3848 5.59264 13.7352 5.81411 13.9003 6.16165Z" fill="#FF991F"/>
</svg>
