<svg width="10" height="16" viewBox="0 0 10 16" fill="none" xmlns="http://www.w3.org/2000/svg">
<path d="M6.1819 7.18817C6.30049 7.29441 6.39462 7.42081 6.45886 7.56007C6.52309 7.69933 6.55617 7.84869 6.55617 7.99956C6.55617 8.15042 6.52309 8.29979 6.45886 8.43905C6.39462 8.57831 6.30049 8.7047 6.1819 8.81094L0.374261 14.0449C0.255669 14.1512 0.161538 14.2776 0.0973016 14.4168C0.033065 14.5561 -6.56159e-06 14.7054 -6.57489e-06 14.8563C-6.58819e-06 15.0072 0.0330649 15.1565 0.0973015 15.2958C0.161538 15.4351 0.255669 15.5614 0.374261 15.6677C0.611327 15.8805 0.932014 16 1.26628 16C1.60055 16 1.92124 15.8805 2.15831 15.6677L7.96594 10.4223C8.67678 9.77945 9.07605 8.90808 9.07605 7.99956C9.07605 7.09103 8.67678 6.21966 7.96594 5.57684L2.15831 0.33143C1.92264 0.120305 1.60455 0.00128204 1.27261 1.93507e-05C1.10609 -0.000849461 0.94102 0.0279763 0.786861 0.0848467C0.632702 0.141717 0.49249 0.225514 0.374262 0.33143C0.25567 0.437667 0.161539 0.564059 0.0973028 0.703319C0.0330662 0.842579 -5.35259e-06 0.991948 -5.36589e-06 1.14281C-5.37919e-06 1.29367 0.0330661 1.44304 0.0973028 1.5823C0.161539 1.72156 0.25567 1.84795 0.374262 1.95419L6.1819 7.18817Z" fill="white"/>
</svg>
