<svg width="26" height="26" viewBox="0 0 26 26" fill="none" xmlns="http://www.w3.org/2000/svg">
<path fill-rule="evenodd" clip-rule="evenodd" d="M7.48453 6.7954C6.34235 6.7954 5.41644 7.72132 5.41644 8.8635V10.2426H20.5832V8.8635C20.5832 8.31501 20.3653 7.78898 19.9775 7.40113C19.5896 7.01329 19.0636 6.7954 18.5151 6.7954H7.48453ZM20.5833 11.6209H5.41652V17.1362C5.41652 17.6847 5.63441 18.2107 6.02225 18.5986C6.41009 18.9864 6.93612 19.2043 7.48461 19.2043H18.5152C19.0637 19.2043 19.5897 18.9864 19.9775 18.5986C20.3654 18.2107 20.5833 17.6847 20.5833 17.1362V11.6209ZM8.76822 17.2251H11.1364C11.7118 17.2233 12.1779 16.7573 12.1797 16.1819C12.1785 15.6062 11.7121 15.1398 11.1364 15.1386H8.76822C8.19254 15.1398 7.72616 15.6062 7.72496 16.1819C7.72675 16.7573 8.19279 17.2233 8.76822 17.2251Z" fill="#C1C7D0"/>
</svg>
