<svg width="100" height="100" viewBox="0 0 100 100" fill="none" xmlns="http://www.w3.org/2000/svg">
<rect width="100" height="100" rx="50" fill="#004BFD" fill-opacity="0.1"/>
<path d="M61.9993 60.5022C61.9738 59.6322 61.9468 58.9377 61.8425 58.5754L61.6198 57.8029L60.9958 58.3084C60.7783 58.4854 60.605 58.8034 60.4333 59.1184C60.1708 59.6022 59.8738 60.1497 59.3518 60.2607C59.3049 60.2704 59.2572 60.2755 59.2093 60.2757C58.9393 60.2757 58.7653 60.0642 58.4803 59.5887C58.2133 59.1424 57.9118 58.6362 57.278 58.6362C57.1715 58.6362 57.0605 58.6512 56.939 58.6819C56.5645 58.7777 56.1796 58.8266 55.793 58.8274C54.362 58.8274 53.2948 58.1532 52.7855 57.7504L52.427 57.4684L52.0933 57.7789C50.561 59.2009 48.1685 59.5324 46.4315 59.5602L46.1308 59.5647L45.98 59.8249C45.2615 61.0602 43.3175 61.5919 41.7575 62.0194C40.9925 62.2294 40.2688 62.4282 39.7708 62.6817C38.9675 63.0912 39.3035 64.1644 39.6598 65.3007L39.824 65.8227L62.0525 61.8979L62.033 61.4314C62.0188 61.1202 62.0083 60.8089 61.9993 60.5022ZM71.5798 54.2847C71.5093 54.1287 71.3113 53.8677 70.7938 53.8677C70.439 53.8677 69.932 53.9869 69.4723 54.1782L69.3913 54.2119L69.245 54.3469C68.759 54.7534 68.975 55.5079 69.362 56.6127C69.6155 57.3349 69.9028 58.1539 69.6718 58.5702C69.5878 58.7224 69.4348 58.8222 69.2038 58.8747C69.0875 58.9009 68.9788 58.9137 68.8798 58.9137C68.72 58.9207 68.5626 58.8731 68.4335 58.7787C68.0098 58.4532 67.976 57.5937 67.943 56.7627C67.9033 55.7517 67.8455 55.2477 67.4765 54.9777L67.2703 54.8907H67.1555C67.0805 54.8907 66.998 54.9027 66.9193 54.9252C65.9083 55.1974 66.101 55.9302 66.2555 56.5182C66.4505 57.2659 66.4588 57.6529 65.9855 57.9702C65.7823 58.1067 65.5955 58.1757 65.4313 58.1757C65.1403 58.1757 64.8995 57.9619 64.6865 57.7729C64.439 57.5539 64.184 57.3274 63.833 57.3274C63.626 57.3274 63.4603 57.4092 63.353 57.4707L63.191 57.5652L63.1235 57.7399C62.9945 58.0744 63.113 58.5064 63.791 60.1744C63.914 60.4744 64.037 60.7834 64.1555 61.0932L64.304 61.4794L64.715 61.4314C65.4298 61.3474 71.723 60.5862 72.3838 59.5189C72.962 58.3602 71.8033 54.7759 71.5798 54.2847ZM37.7968 64.5282C37.757 63.7609 37.7218 63.1954 37.6235 62.9044L37.4983 62.5324L37.1068 62.5422C36.809 62.5489 36.2863 62.7147 35.8993 62.8527C35.4073 63.0267 34.8493 63.2239 34.3813 63.2239C34.2793 63.2239 34.1833 63.2149 34.0963 63.1962C33.7213 63.1144 33.641 62.8302 33.593 62.1822C33.5608 61.7389 33.5195 61.1877 33.0185 61.0572C32.9243 61.0319 32.8273 61.0191 32.7298 61.0189C32.4973 61.0189 32.291 61.0864 32.0218 61.1809C31.829 61.2484 31.5898 61.3332 31.3273 61.3557L31.1878 61.3744C31.043 61.3744 30.5405 61.4029 30.1693 61.7719C29.9015 62.0374 29.7695 62.4117 29.7778 62.8849C29.8175 65.5197 30.383 67.0039 31.4585 67.2964C31.688 67.3587 31.9753 67.3894 32.3368 67.3894C33.8038 67.3894 36.272 66.8644 37.4998 66.5539L37.949 66.4399L37.8988 65.9802C37.851 65.4972 37.817 65.013 37.7968 64.5282Z" fill="#FFA963"/>
<path d="M38.939 68.3524C38.726 68.3524 38.5333 68.2872 38.366 68.1604C37.691 67.6459 37.5665 66.2224 37.4825 64.5529C37.4488 63.8794 37.4015 62.9682 37.256 62.8752C37.207 62.8627 37.1566 62.8569 37.106 62.8579C36.8285 62.8579 36.431 62.9989 36.0103 63.1474C35.489 63.3319 34.904 63.5389 34.382 63.5389C34.2583 63.5389 34.1398 63.5269 34.031 63.5037C33.3658 63.3597 33.3178 62.7207 33.2788 62.2077C33.2338 61.6002 33.161 61.4187 32.9383 61.3602C32.8712 61.3429 32.8021 61.3344 32.7328 61.3347C32.534 61.3347 32.33 61.4067 32.1328 61.4764C31.859 61.5739 31.5553 61.6819 31.1675 61.6819C30.8128 61.6819 30.443 61.5897 30.035 61.3999C29.6713 61.2312 29.426 60.9582 29.309 60.5899C29.0225 59.6907 29.5933 58.4689 29.7748 58.1164L29.963 57.7482L30.368 57.8412C30.5143 57.8749 30.593 57.8937 30.68 57.9042C30.7798 57.9154 30.8728 57.9214 30.9613 57.9214C31.7548 57.9214 32.0188 57.4752 32.2528 57.0814C32.4425 56.7627 32.6203 56.4619 33.0155 56.4619C33.7153 56.5332 33.7513 57.1017 33.7798 57.5577C33.815 58.1059 33.872 58.5117 34.2913 58.7427C34.3957 58.8055 34.5145 58.8406 34.6363 58.8447C34.7765 58.8447 34.9258 58.7824 35.0938 58.6534L35.4193 58.4029L35.7433 58.6549C36.2818 59.0704 37.811 60.0372 40.3768 60.0372C41.231 60.0372 42.1273 59.9262 43.0408 59.7072C43.3805 59.6254 43.6933 59.5422 43.988 59.4567L44.0638 59.4349L44.267 59.4484C44.444 59.4739 45.6133 58.0572 46.2583 58.0827L46.6955 59.5977L45.9208 60.4452C44.993 61.4592 43.253 61.9362 41.855 62.3202C41.096 62.5279 40.3843 62.7229 39.9148 62.9622C39.4325 63.2074 39.5383 63.8584 39.9373 65.1349C40.232 66.0724 40.5365 67.0437 40.157 67.6999C39.9755 68.0149 39.6643 68.2174 39.2053 68.3209C39.1179 68.3408 39.0286 68.3519 38.939 68.3524Z" fill="#F9C900"/>
<path d="M71.5775 54.2826C71.51 54.1326 71.315 53.8701 70.79 53.8701C70.5425 53.8701 70.2275 53.9301 69.8975 54.0276C70.28 55.7526 70.4225 57.4101 69.7475 58.0251C69.77 58.2426 69.7475 58.4301 69.6725 58.5726C69.59 58.7226 69.4325 58.8201 69.2075 58.8726C69.0875 58.9026 68.975 58.9176 68.8775 58.9176C68.7177 58.9247 68.5607 58.8741 68.435 58.7751C68.3503 58.7113 68.2811 58.6293 68.2325 58.5351C67.19 58.7901 65.57 59.1726 63.5675 59.6151C63.635 59.7876 63.71 59.9751 63.7925 60.1776C63.9125 60.4776 64.04 60.7851 64.1525 61.0926L64.3025 61.4826L64.715 61.4301C65.4275 61.3476 71.72 60.5826 72.38 59.5176C72.965 58.3626 71.8025 54.7776 71.5775 54.2826ZM62 60.5001C61.9925 60.3201 61.985 60.1401 61.985 59.9751C55.715 61.3626 46.7225 63.2601 39.77 64.5576C39.815 64.7376 39.8675 64.9251 39.935 65.1351C40.0025 65.3451 40.07 65.5626 40.13 65.7726L62.0525 61.8951L62.03 61.4301C62.0225 61.1226 62.0075 60.8076 62 60.5001ZM30.2525 66.0201C30.53 66.7251 30.935 67.1451 31.46 67.2951C31.685 67.3626 31.9775 67.3926 32.3375 67.3926C33.8075 67.3926 36.275 66.8676 37.4975 66.5526L37.655 66.5151C37.58 66.0576 37.535 65.5326 37.505 64.9701C34.19 65.5626 31.55 65.9676 30.2525 66.0201Z" fill="#F49853"/>
<path d="M63.4497 65.2052C63.1752 65.2052 62.939 65.1302 62.7275 64.9735C61.865 64.3375 61.745 62.5787 61.6835 60.5162C61.658 59.5937 61.631 58.6397 61.4435 58.4672C61.181 58.4695 61.016 58.705 60.713 59.2637C60.4167 59.8097 60.0807 60.427 59.4147 60.5687C59.3525 60.5822 59.2865 60.5905 59.2212 60.5905C58.7135 60.5905 58.4577 60.163 58.2102 59.7505C57.929 59.2817 57.698 58.951 57.2825 58.951C57.1921 58.9522 57.1022 58.9643 57.0147 58.987C56.616 59.0888 56.2061 59.1407 55.7945 59.1415C54.6777 59.1415 53.774 58.75 53.213 58.4215L51.62 57.316L53.4792 57.4292C55.0362 57.4217 56.3885 57.112 57.497 56.5075L57.6207 56.44L57.9537 56.4452C59.1477 56.4452 63.1887 56.236 64.9737 53.5502L65.0847 53.3867L65.2737 53.3327C65.612 53.2382 65.8445 53.1002 65.9847 52.909C66.2975 52.4845 66.1565 51.8455 66.0432 51.3332C66.0115 51.1944 65.984 51.0546 65.9607 50.914L65.7927 49.771L66.7707 50.3852C66.899 50.4655 67.0745 50.6065 67.2027 50.713C67.5762 51.0197 68.039 51.4007 68.621 51.4007C69.011 51.4007 69.4362 51.226 69.8855 50.8802C69.9132 50.8502 69.938 50.827 69.9672 50.803L70.5867 50.2885L70.8162 51.0625C71.1642 52.237 70.7562 53.3972 69.6372 54.4165L69.5352 54.4975L69.4452 54.5905C69.1182 54.8672 69.338 55.5902 69.659 56.5067C70.0032 57.4892 70.2252 58.222 69.9477 58.723C69.8157 58.9592 69.5952 59.1092 69.2727 59.1812C69.1347 59.2127 69.0027 59.2292 68.8805 59.2292C68.5055 59.2292 68.309 59.0792 68.2437 59.0297C67.7015 58.6127 67.6625 57.6385 67.6287 56.7782C67.6017 56.1152 67.5747 55.438 67.3265 55.2557C67.2758 55.2211 67.2153 55.2038 67.154 55.2062C67.102 55.2069 67.0503 55.2145 67.0002 55.2287C66.3575 55.4027 66.3702 55.714 66.5592 56.437C66.7107 57.0167 66.899 57.7352 66.161 58.2317C65.8962 58.4095 65.6637 58.4927 65.4275 58.4927C65.024 58.4927 64.7615 58.2595 64.4825 58.0127C64.2935 57.8447 64.0617 57.64 63.833 57.64C63.7355 57.64 63.6305 57.6737 63.512 57.7427C63.2127 57.9167 63.6732 59.0492 64.0797 60.0482C64.7082 61.5925 65.417 63.3295 64.9032 64.375C64.7187 64.75 64.3895 65.005 63.9237 65.1355C63.7696 65.1799 63.6102 65.2033 63.4497 65.2052Z" fill="#F9C900"/>
<path d="M58.5515 55.7787C58.7007 55.649 58.8477 55.5147 58.9865 55.3655L59.1215 55.2192L59.3187 55.1982C59.711 55.1555 60.0087 55.0235 60.2292 54.7955C60.6935 54.3125 60.7017 53.54 60.6845 53.231L60.6695 53.003L60.8262 52.8357C61.0287 52.6205 61.142 52.3167 61.2417 52.0257C61.3767 51.6282 61.4532 51.4407 61.6257 51.3132L61.6482 51.2967L61.733 51.248L61.85 51.2157L61.9962 51.1992C62.4965 51.1992 62.6922 51.6462 62.8992 52.1195C63.215 52.844 63.5247 53.4012 64.3932 53.4395L65.5295 53.4905L64.7637 54.3305C63.1362 56.117 60.4205 56.588 58.946 56.711L57.3282 56.8445L58.5515 55.7787Z" fill="#A02E14"/>
<path d="M53.4178 57.7317C51.5653 57.7317 49.8905 57.3342 49.0558 57.0972L48.3823 56.9059L48.7468 56.3074C48.9455 55.9827 48.8435 55.5462 48.7535 55.1614C48.6238 54.6109 48.5645 54.3597 48.6913 54.1227L48.8563 53.8137L49.2043 53.8422C49.397 53.8572 49.5703 53.9547 49.9618 54.2209C50.2828 54.4384 50.7658 54.7662 51.2495 54.7662C51.3418 54.7662 51.4333 54.7542 51.521 54.7309L51.7475 54.6687L51.947 54.7947C52.142 54.9199 52.6625 55.2094 53.252 55.2094C53.3795 55.2094 53.5055 55.1952 53.624 55.1674C54.149 55.0474 54.584 54.6619 54.92 54.0229C55.22 53.4492 55.4953 53.1762 55.811 53.1387H55.8133C56.2558 53.1387 56.546 53.4507 56.9825 53.9584C57.3965 54.4384 57.8638 54.9799 58.4863 55.1532L59.459 55.4232L58.6865 56.0734C58.3655 56.3434 58.0633 56.5579 57.761 56.7289C56.5783 57.3942 55.1173 57.7317 53.4178 57.7317Z" fill="#F40B1C"/>
<path d="M59.0645 55.5348C58.9535 55.5348 58.8395 55.5296 58.718 55.5161C57.833 55.4261 57.23 54.7278 56.7455 54.1661C56.456 53.8293 56.1297 53.4506 55.8777 53.4506C55.6715 53.4731 55.4375 53.7153 55.199 54.1676C54.8202 54.8913 54.3162 55.3301 53.702 55.4726C53.5595 55.5063 53.4087 55.5228 53.255 55.5228C52.9235 55.5228 52.5762 55.4448 52.2215 55.2918L51.464 54.9641L52.0745 54.4091C52.1267 54.3623 52.1767 54.3133 52.2245 54.2621C52.5342 53.9253 52.6572 53.5781 52.5897 53.2293C52.484 52.6758 51.9462 52.2033 51.5142 51.9056L50.5002 51.2051L51.704 50.9471C53.7957 50.4971 56.0345 50.0088 58.1975 49.5251L59.3007 49.2783L58.7885 50.2863C58.5848 50.7051 58.5161 51.1768 58.592 51.6363C58.7307 52.4808 59.2632 53.0801 59.918 53.1273C60.0618 53.1377 60.2064 53.1266 60.347 53.0943L61.0467 52.9398L60.9927 53.6538C60.9507 54.2321 60.7677 54.6903 60.4527 55.0166C60.119 55.3608 59.6517 55.5348 59.0645 55.5348Z" fill="#599306"/>
<path d="M45.767 59.8694L43.553 59.5904L45.68 58.8509C47.471 58.0582 47.7095 57.2962 47.7388 57.1514L47.801 56.8529L48.089 56.7547C48.1563 56.7324 48.2224 56.7066 48.287 56.6774L48.482 56.5859L48.6853 56.6557C48.824 56.7037 50.0803 57.1282 51.7603 57.3284L53.0278 57.4792L52.0288 58.2742C50.3675 59.5949 47.9173 59.8724 46.1533 59.8724L45.767 59.8694Z" fill="#A02E14"/>
<path d="M40.4128 60.3464C37.853 60.3464 36.227 59.3864 35.6465 58.9739L35.1763 58.6394L35.6285 58.1024C35.936 57.7371 36.1588 57.4911 36.44 57.4049L36.53 57.3824L36.6275 57.3756C36.9418 57.3756 37.2103 57.5661 37.5215 57.7881C37.9213 58.0716 38.3713 58.3911 38.9068 58.3911C39.1715 58.3911 39.4393 58.3161 39.7258 58.1624C39.9673 58.0311 40.1698 57.8279 40.3258 57.5609L40.6168 57.0584L41.0923 57.3929C41.3938 57.6059 41.8745 57.8586 42.4483 57.8586C42.7505 57.8586 43.0505 57.7859 43.3423 57.6426C44.0398 57.2999 44.057 56.8289 44.0075 56.2491L44.0038 56.2041L44.3285 55.6094L44.9495 55.8269L45.0575 55.9941C45.3275 56.4231 45.6628 56.9541 46.7855 56.9541C46.9408 56.9541 47.1095 56.9444 47.291 56.9226L48.4933 56.7779L47.7875 57.7619C47.3398 58.3859 46.166 59.2836 43.115 60.0141C42.1925 60.2346 41.2828 60.3464 40.4128 60.3464Z" fill="#F40B1C"/>
<path d="M42.4453 58.1712C41.5978 58.1712 40.9588 57.7084 40.724 57.5097L40.472 57.2952L40.5508 56.9742C40.742 56.0307 40.421 54.8067 40.0048 54.0889L39.6313 53.4439L40.361 53.2992C43.2812 52.717 46.1977 52.117 49.1105 51.4992L50.8685 51.1264L51.0598 51.2614C51.6845 51.5937 52.7263 52.2702 52.8988 53.1694C52.9858 53.6232 52.8373 54.0619 52.4563 54.4759C52.0783 54.8869 51.68 55.0864 51.239 55.0864C50.7215 55.0864 50.2558 54.7999 49.784 54.4819C49.592 54.3507 49.301 54.1527 49.1518 54.1527C48.9148 54.3304 48.938 54.5712 49.0588 55.0879C49.1668 55.5484 49.289 56.0704 48.9965 56.5084C48.7633 56.8602 48.299 57.0897 47.5768 57.2104C47.2813 57.2592 47.0083 57.2847 46.7638 57.2847C45.4985 57.2847 45.0785 56.6187 44.801 56.1777C44.6113 55.8754 44.5385 55.8027 44.426 55.8027C44.369 55.8057 44.3413 55.8177 44.336 55.8252C44.291 55.8762 44.3083 56.0742 44.321 56.2182C44.363 56.7132 44.4275 57.4609 43.481 57.9259C43.1592 58.0862 42.8048 58.1701 42.4453 58.1712ZM64.478 53.7649C63.2735 53.7649 62.909 52.9294 62.615 52.2582C62.39 51.7422 62.2528 51.5127 62.03 51.5127C61.9812 51.5133 61.9326 51.5198 61.8853 51.5322C61.7405 51.5689 61.6505 51.8007 61.5403 52.1247C61.3505 52.6834 61.0903 53.4492 60.0628 53.4492C60.0088 53.4492 59.9533 53.4469 59.894 53.4417C58.967 53.3742 58.4165 52.5117 58.2815 51.6874C58.1345 50.7814 58.439 49.6759 59.4538 49.2522C64.559 48.0912 67.7563 47.3029 68.981 46.9032L69.2765 46.8057L69.5068 47.0172C69.845 47.3284 70.9483 48.4377 70.9138 49.6369C70.8958 50.2129 70.6145 50.7154 70.0775 51.1294C69.5705 51.5209 69.0935 51.7114 68.6195 51.7114C67.9198 51.7114 67.4315 51.3094 67.0018 50.9547C66.7655 50.7619 66.5248 50.5639 66.3695 50.5639C66.281 50.5789 66.203 50.5977 66.3508 51.2652C66.4783 51.8404 66.6358 52.5567 66.2383 53.0967C65.9593 53.4762 65.462 53.6914 64.7173 53.7537C64.6348 53.7612 64.5545 53.7649 64.478 53.7649Z" fill="#77A505"/>
<path d="M34.634 59.1543C34.46 59.1521 34.2895 59.1051 34.139 59.0178C33.5367 58.6871 33.4977 58.0728 33.4662 57.5778C33.425 56.9231 33.3327 56.8091 33.056 56.7791C32.825 56.7798 32.7185 56.9148 32.5347 57.2238C32.2812 57.6513 31.9347 58.2363 30.9657 58.2363C30.8682 58.2363 30.7617 58.2303 30.6455 58.2176C29.9337 58.1358 29.4095 57.8591 29.0855 57.3941C28.6347 56.7446 28.7142 55.9166 28.769 55.5918L28.8425 55.1643L29.276 55.1493C30.6417 55.1006 34.106 54.5313 39.5705 53.4558L39.89 53.3936L40.091 53.6486C40.481 54.1398 41.1327 55.6803 40.871 57.0101C40.742 57.6626 40.397 58.1561 39.8735 58.4388C39.542 58.6188 39.2232 58.7066 38.9007 58.7066C38.2715 58.7066 37.7967 58.3691 37.3775 58.0721C37.1135 57.8846 36.842 57.6896 36.635 57.6896C36.6001 57.6896 36.5655 57.6949 36.5322 57.7053C36.3192 57.7713 36.0912 58.0428 35.8707 58.3053C35.4522 58.8018 35.1177 59.1543 34.6332 59.1543H34.634Z" fill="#599306"/>
<path d="M29.4508 47.8227C33.263 43.1419 42.344 32.2399 44.1755 31.6677C44.288 31.6332 44.417 31.6167 44.5708 31.6167C47.5663 31.6167 64.7383 38.7124 67.9933 41.0067L68.6623 41.5504L67.8238 41.9577C66.035 42.4324 56.6585 44.9007 47.6975 46.8904C38.813 48.8629 29.9863 50.4387 28.3078 50.7349L27.4288 50.5369C27.4288 50.5369 28.5358 48.9469 29.4508 47.8227Z" fill="#FCC683"/>
<path d="M68.66 41.5477L67.82 41.9602C66.035 42.4327 56.66 44.9002 47.6975 46.8877C38.81 48.8602 29.99 50.4427 28.31 50.7352L27.4325 50.5402C27.4325 50.5402 27.9425 49.7977 28.5575 48.9727C32.285 48.2677 37.4 47.2627 42.53 46.1227C51.17 44.2027 60.2 41.8402 62.435 41.2477C62.585 41.2102 62.72 41.1577 62.855 41.0902L63.4925 40.7827L62.9075 40.3102C62.8475 40.2652 62.8025 40.2277 62.7425 40.1827C60.1325 38.4052 49.835 33.9877 43.685 31.9327C43.88 31.7977 44.045 31.7077 44.1725 31.6702C44.285 31.6327 44.42 31.6177 44.57 31.6177C47.5625 31.6177 64.7375 38.7127 67.9925 41.0077L68.66 41.5477Z" fill="#F7BE7F"/>
<path d="M29.2663 55.537C29.129 55.537 29.0053 55.5243 28.8898 55.4988L28.7885 55.4688C28.208 55.1268 27.7625 54.274 27.5128 53.0973C27.3493 52.3285 27.3005 51.5688 27.377 50.9583L27.4295 50.5368L27.857 50.4693C27.9298 50.4573 37.622 48.8043 47.63 46.5828C55.3378 44.872 63.2075 42.844 66.4978 41.9808C67.4255 41.7378 68.6623 41.5503 68.6623 41.5503L68.7695 41.8053C69.8225 43.9128 70.742 46.1815 69.569 47.0095C69.1078 47.335 68.4868 47.4715 67.94 47.5915C67.7773 47.6268 67.6235 47.6605 67.4863 47.6973C66.0845 48.0723 64.6858 48.4038 63.3725 48.7113C59.4485 49.633 55.5673 50.4663 51.9575 51.2305C48.9883 51.8605 45.893 52.498 42.7573 53.1258C40.2367 53.6337 37.7121 54.1217 35.1838 54.5898L34.8388 54.6535C33.3073 54.9355 31.739 55.225 30.1813 55.4283C30.1093 55.4373 30.032 55.4508 29.9533 55.4635C29.744 55.498 29.5078 55.537 29.2663 55.537Z" fill="#FFA963"/>
<path d="M69.5675 47.0074C69.11 47.3374 68.4875 47.4724 67.94 47.5924C67.775 47.6299 67.625 47.6599 67.49 47.6974C66.0875 48.0724 64.685 48.4024 63.3725 48.7099C59.45 49.6324 55.565 50.4649 51.9575 51.2299C48.9875 51.8599 45.89 52.4974 42.755 53.1274C39.77 53.7274 37.3625 54.1924 35.1875 54.5899L34.8425 54.6499C33.305 54.9349 31.7375 55.2274 30.185 55.4299C30.11 55.4374 30.035 55.4524 29.9525 55.4599C29.7425 55.4974 29.51 55.5349 29.27 55.5349C29.1275 55.5349 29.0075 55.5274 28.8875 55.4974L28.79 55.4674C28.5125 55.3099 28.265 55.0324 28.0625 54.6574L28.2275 54.6349C28.31 54.6199 28.385 54.6049 28.46 54.5974C30.0125 54.3949 31.5875 54.1024 33.1175 53.8249L33.4625 53.7574C35.6375 53.3599 38.045 52.8949 41.03 52.2949C44.1725 51.6649 47.2625 51.0274 50.2325 50.3974C53.84 49.6399 57.725 48.7999 61.6475 47.8849C62.96 47.5774 64.3625 47.2399 65.765 46.8649C65.9 46.8274 66.0575 46.7974 66.215 46.7599C66.7625 46.6399 67.385 46.5049 67.8425 46.1824C68.8775 45.4549 68.2925 43.6249 67.43 41.7649C68.0825 41.6374 68.66 41.5474 68.66 41.5474L68.7725 41.8024C69.8225 43.9099 70.745 46.1824 69.5675 47.0074Z" fill="#F49853"/>
</svg>
