<svg width="35" height="35" viewBox="0 0 35 35" fill="none" xmlns="http://www.w3.org/2000/svg">
<path fill-rule="evenodd" clip-rule="evenodd" d="M17.5 7.2915C11.8621 7.2915 7.29167 11.8619 7.29167 17.4998C7.29167 23.1377 11.8621 27.7082 17.5 27.7082C23.1379 27.7082 27.7083 23.1377 27.7083 17.4998C27.7083 14.7924 26.6328 12.1959 24.7184 10.2815C22.804 8.36702 20.2074 7.2915 17.5 7.2915Z" fill="#C1C7D0"/>
<path fill-rule="evenodd" clip-rule="evenodd" d="M22.1667 14.1194L20.4269 19.2848C20.2445 19.8211 19.8204 20.2403 19.2821 20.4165L14.0802 22.1373C13.7241 22.2541 13.3326 22.1598 13.0687 21.8937C12.8048 21.6276 12.7137 21.2354 12.8333 20.8802L14.5731 15.7163C14.7559 15.1799 15.1798 14.7605 15.7179 14.5831L20.9198 12.8638C21.2759 12.747 21.6674 12.8413 21.9313 13.1074C22.1952 13.3734 22.2863 13.7657 22.1667 14.1208V14.1194Z" fill="white"/>
</svg>
