<svg width="6" height="5" viewBox="0 0 6 5" fill="none" xmlns="http://www.w3.org/2000/svg">
<path d="M2.48089 4.72315C2.53365 4.80736 2.60937 4.87725 2.70047 4.92584C2.79157 4.97443 2.89486 5 3 5C3.10513 5 3.20843 4.97443 3.29953 4.92584C3.39063 4.87725 3.46635 4.80736 3.51911 4.72315L5.9196 0.833498C5.97224 0.749068 5.99997 0.653299 6 0.555808C6.00003 0.458317 5.97235 0.362535 5.91975 0.27808C5.86715 0.193624 5.79148 0.123469 5.70034 0.0746588C5.60919 0.0258484 5.50578 0.000100569 5.40049 4.24427e-07L0.599508 4.71109e-09C0.494216 0.000100131 0.390807 0.0258479 0.299662 0.0746584C0.208518 0.123469 0.132846 0.193624 0.0802473 0.278079C0.0276484 0.362534 -2.72595e-05 0.458316 -8.83136e-08 0.555808C2.6606e-05 0.653299 0.0277556 0.749067 0.0804013 0.833497L2.48089 4.72315Z" fill="#2D2D2D"/>
</svg>
