<svg width="35" height="35" viewBox="0 0 35 35" fill="none" xmlns="http://www.w3.org/2000/svg">
<path fill-rule="evenodd" clip-rule="evenodd" d="M23.2225 7.29151H11.7775C10.4888 7.29151 9.44415 8.33617 9.44415 9.62484V24.968C9.44372 25.2565 9.55688 25.5336 9.75915 25.7394L11.3706 27.3873C11.5702 27.5924 11.8442 27.7081 12.1304 27.7081C12.4166 27.7081 12.6906 27.5924 12.8902 27.3873L14.0569 26.1944C14.2565 25.9893 14.5305 25.8736 14.8167 25.8736C15.1028 25.8736 15.3769 25.9893 15.5764 26.1944L16.7431 27.3873C16.9432 27.5921 17.2173 27.7076 17.5036 27.7076C17.7899 27.7076 18.0641 27.5921 18.2642 27.3873L19.4308 26.1944C19.6304 25.9893 19.9044 25.8736 20.1906 25.8736C20.4768 25.8736 20.7508 25.9893 20.9504 26.1944L22.1171 27.3873C22.3167 27.5924 22.5907 27.7081 22.8769 27.7081C23.163 27.7081 23.4371 27.5924 23.6367 27.3873L25.2408 25.7438C25.4448 25.5354 25.559 25.2552 25.5587 24.9636V10.3161V10.2986V9.62484C25.5587 9.00549 25.3125 8.41156 24.8743 7.97389C24.4361 7.53622 23.8418 7.29073 23.2225 7.29151Z" fill="#004BFD" fill-opacity="0.8"/>
<path d="M16.6669 16.3154C17.0503 16.3154 17.4048 16.5204 17.5966 16.8525C17.7882 17.1846 17.7883 17.5937 17.5966 17.9258C17.4048 18.2577 17.0502 18.4619 16.6669 18.4619H13.5624C12.9696 18.4619 12.4891 17.9814 12.4891 17.3887C12.4892 16.796 12.9697 16.3155 13.5624 16.3154H16.6669ZM19.6366 12.3955C20.2293 12.3956 20.7098 12.8761 20.7098 13.4688C20.7098 14.0615 20.2293 14.5419 19.6366 14.542H13.5624C12.9696 14.5419 12.4891 14.0615 12.4891 13.4688C12.4892 12.876 12.9697 12.3956 13.5624 12.3955H19.6366Z" fill="white"/>
</svg>
