<svg width="24" height="24" viewBox="0 0 24 24" fill="none" xmlns="http://www.w3.org/2000/svg">
<path d="M8.62363 5C9.17591 5 9.62363 5.44772 9.62363 6V10.0996L9.6246 10.0986C10.8226 10.5823 11.6069 11.7452 11.607 13.0371C11.607 14.3292 10.8227 15.4918 9.6246 15.9756V18C9.6246 18.5523 9.17689 19 8.6246 19H8.23691C7.68466 19 7.23691 18.5523 7.23691 18V15.9766C6.03895 15.4928 5.25449 14.3301 5.25449 13.0381C5.25465 11.7462 6.03895 10.5833 7.23691 10.0996V6C7.23691 5.44774 7.68466 5.00004 8.23691 5H8.62363ZM15.6783 5C16.2304 5.00018 16.6783 5.44782 16.6783 6V8.02344C17.8762 8.5073 18.6607 9.67001 18.6607 10.9619C18.6606 12.2538 17.8762 13.4166 16.6783 13.9004V18C16.6783 18.5522 16.2304 18.9998 15.6783 19H15.2896C14.7375 18.9998 14.2896 18.5522 14.2896 18V13.9014C13.0918 13.4176 12.3074 12.2547 12.3072 10.9629C12.3072 9.67099 13.0918 8.50828 14.2896 8.02441V6C14.2896 5.44783 14.7375 5.00019 15.2896 5H15.6783ZM8.43222 11.8613C7.78273 11.8608 7.25602 12.3866 7.25546 13.0361C7.25498 13.6856 7.78082 14.2123 8.43027 14.2129C9.07937 14.2127 9.60588 13.6872 9.60703 13.0381C9.60758 12.3887 9.0816 11.862 8.43222 11.8613ZM15.484 9.78613C14.8345 9.78614 14.3082 10.3125 14.3082 10.9619C14.3082 11.6114 14.8345 12.1377 15.484 12.1377C16.1332 12.1371 16.6592 11.6112 16.6598 10.9619C16.6597 10.3125 16.1334 9.78613 15.484 9.78613Z" fill="#C1C7D0"/>
</svg>
