<svg width="35" height="35" viewBox="0 0 35 35" fill="none" xmlns="http://www.w3.org/2000/svg">
<path fill-rule="evenodd" clip-rule="evenodd" d="M23.625 27.7082C25.8802 27.7082 27.7083 25.88 27.7083 23.6248C27.7083 21.3697 25.8802 19.5415 23.625 19.5415C21.3698 19.5415 19.5417 21.3697 19.5417 23.6248C19.5417 25.88 21.3698 27.7082 23.625 27.7082ZM23.625 15.4582C25.8802 15.4582 27.7083 13.63 27.7083 11.3748C27.7083 9.11967 25.8802 7.2915 23.625 7.2915C21.3698 7.2915 19.5417 9.11967 19.5417 11.3748C19.5417 13.63 21.3698 15.4582 23.625 15.4582ZM11.375 27.7082C13.6302 27.7082 15.4583 25.88 15.4583 23.6248C15.4583 21.3697 13.6302 19.5415 11.375 19.5415C9.11983 19.5415 7.29166 21.3697 7.29166 23.6248C7.29166 25.88 9.11983 27.7082 11.375 27.7082Z" fill="#C1C7D0"/>
<path fill-rule="evenodd" clip-rule="evenodd" d="M11.375 15.4582C13.6302 15.4582 15.4583 13.63 15.4583 11.3748C15.4583 9.11967 13.6302 7.2915 11.375 7.2915C9.11983 7.2915 7.29166 9.11967 7.29166 11.3748C7.29166 13.63 9.11983 15.4582 11.375 15.4582Z" fill="#C1C7D0"/>
</svg>
