<svg width="24" height="24" viewBox="0 0 24 24" fill="none" xmlns="http://www.w3.org/2000/svg">
<path d="M14.5513 16.7808C14.3174 17.9873 13.2264 18.8352 11.9995 18.7642C10.773 18.8349 9.68306 17.987 9.44971 16.7808H14.5513ZM12.1431 5.23779C14.7378 5.36112 16.8 7.4615 16.8765 10.0581V11.5806C16.8762 11.9312 17.0162 12.2682 17.2642 12.5161L18.8052 14.3062C18.9944 14.4951 19.0509 14.7797 18.9487 15.0269C18.8464 15.2739 18.6049 15.4351 18.3374 15.4351H5.66748C5.40045 15.4344 5.15946 15.2735 5.05713 15.0269C4.95482 14.78 5.01131 14.4956 5.19971 14.3062L6.7124 12.5161C6.96039 12.2682 7.10032 11.9312 7.1001 11.5806V9.86377C7.23248 7.20186 9.47962 5.1404 12.1431 5.23779Z" fill="#C1C7D0"/>
</svg>
