<svg width="41" height="17" viewBox="0 0 41 17" fill="none" xmlns="http://www.w3.org/2000/svg">
<path d="M21.4077 0.629525L21.4077 4.40723L0.630005 4.40723C0.630005 2.32079 2.32135 0.629447 4.40771 0.629447L21.4077 0.629446L21.4077 0.629525Z" fill="#C8546F"/>
<path d="M16.3708 12.4646L16.3708 12.721C16.3708 14.7366 14.7369 16.3706 12.7213 16.3706L4.27958 16.3706C2.26397 16.3706 0.630005 14.7366 0.630005 12.721L0.630005 12.4646C0.630005 10.449 2.26389 8.81505 4.27958 8.81505L12.7212 8.81505C14.7369 8.81505 16.3708 10.449 16.3708 12.4646Z" fill="#FEB860"/>
<path d="M-1.92654e-07 12.5926C-8.6426e-08 15.0228 1.97704 17 4.40733 17L12.5925 17C14.8161 17 16.6591 15.3445 16.9568 13.2016L40.2962 13.2016L40.2962 11.9423L16.9517 11.9423C16.6364 9.81946 14.8019 8.18518 12.5926 8.18518L4.40733 8.18518C1.97704 8.18518 -2.98882e-07 10.1624 -1.92654e-07 12.5926ZM12.5926 9.44444C14.3286 9.44444 15.7407 10.8567 15.7407 12.5926C15.7407 14.3285 14.3284 15.7407 12.5926 15.7407L4.40733 15.7407C2.67144 15.7407 1.25926 14.3284 1.25926 12.5925C1.25926 10.8567 2.6716 9.44444 4.40733 9.44444L12.5926 9.44444Z" fill="#1D1D1B"/>
<path d="M15.1114 12.5928L13.8522 12.5928C13.8522 11.8984 13.2872 11.3335 12.5929 11.3335L10.704 11.3335L10.704 10.0743L12.5929 10.0743C13.9817 10.0743 15.1114 11.204 15.1114 12.5928Z" fill="white"/>
<path d="M40.2962 3.77785L40.2962 5.03711L0 5.03711L-2.7522e-08 4.40748C-1.3375e-07 1.97727 1.97704 7.00086e-05 4.40733 6.99024e-05L22.037 6.91318e-05L22.037 3.14822L20.7778 3.14822L20.7778 1.25933L4.40733 1.25933C2.88709 1.25933 1.615 2.34269 1.32246 3.77777L40.2962 3.77777L40.2962 3.77785Z" fill="#1D1D1B"/>
</svg>
