<svg width="26" height="26" viewBox="0 0 26 26" fill="none" xmlns="http://www.w3.org/2000/svg">
<path fill-rule="evenodd" clip-rule="evenodd" d="M13 5.41688C8.81181 5.41688 5.41662 8.81206 5.41662 13.0002C5.41662 17.1884 8.81181 20.5836 13 20.5836C17.1881 20.5836 20.5833 17.1884 20.5833 13.0002C20.5833 10.989 19.7844 9.06014 18.3622 7.63799C16.9401 6.21583 15.0112 5.41688 13 5.41688ZM16.4125 14.5165H13.0065C12.489 14.5023 12.0728 14.0861 12.0586 13.5686V9.21788C12.0586 8.69436 12.483 8.26996 13.0065 8.26996C13.53 8.26996 13.9544 8.69436 13.9544 9.21788V12.6163H16.4125C16.936 12.6163 17.3604 13.0407 17.3604 13.5642C17.3604 14.0877 16.936 14.5121 16.4125 14.5121V14.5165Z" fill="#C1C7D0"/>
</svg>
