<svg width="15" height="13" viewBox="0 0 15 13" fill="none" xmlns="http://www.w3.org/2000/svg">
<path d="M14.401 4.96718C13.8425 4.09342 13.1379 3.31293 12.3153 2.65669L14.0478 1.00169C14.1605 0.890217 14.2228 0.740911 14.2214 0.585934C14.22 0.430957 14.1549 0.28271 14.0402 0.173121C13.9255 0.0635313 13.7703 0.00136905 13.6081 2.2344e-05C13.4459 -0.00132436 13.2896 0.0582522 13.1729 0.16592L11.2889 1.96809C10.121 1.3054 8.78578 0.960002 7.42742 0.969185C3.59691 0.969185 1.41406 3.47414 0.4538 4.96718C0.157139 5.42556 0 5.95382 0 6.49274C0 7.03165 0.157139 7.55991 0.4538 8.01829C1.01236 8.89205 1.71692 9.67254 2.53951 10.3288L0.80709 11.9838C0.747996 12.0383 0.70086 12.1035 0.668434 12.1756C0.636007 12.2478 0.618939 12.3253 0.618225 12.4038C0.617511 12.4823 0.633166 12.5601 0.664276 12.6327C0.695386 12.7054 0.741328 12.7714 0.799421 12.8269C0.857515 12.8824 0.926596 12.9263 1.00264 12.956C1.07867 12.9857 1.16015 13.0007 1.2423 13C1.32445 12.9993 1.40564 12.983 1.48113 12.952C1.55662 12.921 1.62489 12.876 1.68196 12.8196L3.57031 11.0156C4.73676 11.6782 6.07036 12.0242 7.42742 12.0163C11.2579 12.0163 13.4408 9.51133 14.401 8.01829C14.6977 7.55991 14.8548 7.03165 14.8548 6.49274C14.8548 5.95382 14.6977 5.42556 14.401 4.96718ZM1.5081 7.39944C1.33185 7.12698 1.2385 6.81302 1.2385 6.49274C1.2385 6.17245 1.33185 5.85849 1.5081 5.58603C2.33348 4.30578 4.19893 2.15133 7.42742 2.15133C8.45467 2.14583 9.4675 2.38234 10.3763 2.83992L9.13077 4.02975C8.53675 3.653 7.82459 3.48419 7.11511 3.55195C6.40564 3.61972 5.74256 3.91989 5.23838 4.40153C4.73421 4.88317 4.41999 5.51662 4.34906 6.19438C4.27812 6.87215 4.45483 7.55249 4.84921 8.11995L3.41996 9.48533C2.66208 8.9 2.01536 8.1944 1.5081 7.39944ZM9.28359 6.49274C9.28359 6.96302 9.08803 7.41404 8.73993 7.74659C8.39183 8.07913 7.91971 8.26595 7.42742 8.26595C7.15179 8.26493 6.87998 8.20431 6.63237 8.08863L9.09797 5.73321C9.21907 5.96976 9.28252 6.22942 9.28359 6.49274ZM5.57126 6.49274C5.57126 6.02245 5.76682 5.57143 6.11491 5.23889C6.46301 4.90635 6.93514 4.71953 7.42742 4.71953C7.70306 4.72055 7.97487 4.78117 8.22248 4.89685L5.75687 7.25226C5.63578 7.01572 5.57232 6.75605 5.57126 6.49274ZM13.3467 7.39944C12.5214 8.6797 10.6559 10.8341 7.42742 10.8341C6.40017 10.8396 5.38735 10.6031 4.47859 10.1456L5.72408 8.95573C6.3181 9.33247 7.03026 9.50129 7.73973 9.43352C8.44921 9.36575 9.11229 9.06558 9.61646 8.58394C10.1206 8.1023 10.4349 7.46885 10.5058 6.79109C10.5767 6.11332 10.4 5.43299 10.0056 4.86552L11.4349 3.50015C12.1928 4.08547 12.8395 4.79107 13.3467 5.58603C13.523 5.85849 13.6164 6.17245 13.6164 6.49274C13.6164 6.81302 13.523 7.12698 13.3467 7.39944Z" fill="#9E9E9E"/>
</svg>
