<svg width="9" height="9" viewBox="0 0 9 9" fill="none" xmlns="http://www.w3.org/2000/svg">
<path d="M8.79063 0.209373C8.65653 0.0753116 8.47467 0 8.28505 0C8.09543 0 7.91357 0.0753116 7.77947 0.209373L4.5 3.48884L1.22053 0.209373C1.08643 0.0753116 0.904572 0 0.714952 0C0.525332 0 0.343475 0.0753116 0.209373 0.209373C0.0753116 0.343475 0 0.525332 0 0.714952C0 0.904572 0.0753116 1.08643 0.209373 1.22053L3.48884 4.5L0.209373 7.77947C0.0753116 7.91357 0 8.09543 0 8.28505C0 8.47467 0.0753116 8.65653 0.209373 8.79063C0.343475 8.92469 0.525332 9 0.714952 9C0.904572 9 1.08643 8.92469 1.22053 8.79063L4.5 5.51116L7.77947 8.79063C7.91357 8.92469 8.09543 9 8.28505 9C8.47467 9 8.65653 8.92469 8.79063 8.79063C8.92469 8.65653 9 8.47467 9 8.28505C9 8.09543 8.92469 7.91357 8.79063 7.77947L5.51116 4.5L8.79063 1.22053C8.92469 1.08643 9 0.904572 9 0.714952C9 0.525332 8.92469 0.343475 8.79063 0.209373Z" fill="black" fill-opacity="0.3"/>
</svg>
