<svg width="26" height="26" viewBox="0 0 26 26" fill="none" xmlns="http://www.w3.org/2000/svg">
<path fill-rule="evenodd" clip-rule="evenodd" d="M12.9999 5.41689C8.8118 5.41689 5.41664 8.81205 5.41664 13.0002C5.41664 17.1883 8.8118 20.5835 12.9999 20.5835C17.1881 20.5835 20.5832 17.1883 20.5832 13.0002C20.5832 10.989 19.7843 9.06013 18.3621 7.63799C16.94 6.21584 15.0112 5.41689 12.9999 5.41689ZM15.9866 14.1085H10.012C9.43149 14.0901 8.97041 13.6142 8.97041 13.0333C8.97041 12.4525 9.43149 11.9766 10.012 11.9581H15.9866C16.3789 11.9457 16.7468 12.1478 16.9466 12.4856C17.1464 12.8234 17.1464 13.2432 16.9466 13.581C16.7468 13.9188 16.3789 14.121 15.9866 14.1085Z" fill="#C1C7D0"/>
</svg>
