<svg width="24" height="24" viewBox="0 0 24 24" fill="none" xmlns="http://www.w3.org/2000/svg">
<path fill-rule="evenodd" clip-rule="evenodd" d="M14.56 10.9141H13.046V8.8621H16.023C16.6113 8.85006 17.079 8.36444 17.069 7.7761C17.079 7.18776 16.6113 6.70213 16.023 6.6901H13.046V6.0901C13.0578 5.7085 12.8609 5.35074 12.5323 5.15645C12.2036 4.96217 11.7953 4.96217 11.4666 5.15645C11.138 5.35074 10.9412 5.7085 10.953 6.0901V6.6901H9.47495C7.66789 6.6521 6.17064 8.08316 6.12695 9.8901C6.17064 11.697 7.66789 13.1281 9.47495 13.0901H10.953V15.1421H7.97795C7.39629 15.1671 6.93757 15.6459 6.93757 16.2281C6.93757 16.8103 7.39629 17.2891 7.97795 17.3141H10.953V17.9141C10.9412 18.2957 11.138 18.6535 11.4666 18.8477C11.7953 19.042 12.2036 19.042 12.5323 18.8477C12.8609 18.6535 13.0578 18.2957 13.046 17.9141V17.3141H14.56C16.3576 17.3431 17.8396 15.9117 17.873 14.1141C17.8396 12.3165 16.3576 10.8851 14.56 10.9141ZM15.782 14.1141C15.7147 14.7277 15.1758 15.1793 14.56 15.1381H13.046V13.0861H14.56C15.1765 13.045 15.7157 13.4977 15.782 14.1121V14.1141ZM9.47495 8.8621H10.953V10.9141H9.47495C8.84917 10.9627 8.29566 10.5109 8.21795 9.8881C8.29566 9.26525 8.84917 8.81346 9.47495 8.8621Z" fill="#C1C7D0"/>
</svg>
