<svg width="17" height="24" viewBox="0 0 17 24" fill="none" xmlns="http://www.w3.org/2000/svg">
<path d="M6.37112 5.24707H1.86938V6.74773H6.37112V5.24707Z" fill="#FEB860"/>
<path d="M7.87262 16.877H0.369385V20.6288H7.87262V16.877Z" fill="#FEB860"/>
<path d="M7.87262 20.6289H0.369385V23.6303H7.87262V20.6289Z" fill="#C8546F"/>
<path d="M7.87262 6.74756H0.369385V16.8771H7.87262V6.74756Z" fill="#C8546F"/>
<path d="M16.5012 9.74906L10.8737 12.7504V6.37256H16.5012V9.74906Z" fill="#FEC986"/>
<path d="M16.5012 23.6303H10.8737V12.7503L16.5012 9.74902V23.6303Z" fill="#9B4573"/>
<path d="M6.37148 5.25195H1.86975V5.9915H6.37148V5.25195Z" fill="#1D1D1B"/>
<path d="M7.11631 1.12012H6.37676V0.739547H2.99487V0H7.11631V1.12012Z" fill="#1D1D1B"/>
<path d="M0 6.37793V24H8.24287V6.37793H0ZM7.50332 7.11743V16.5074H0.739499V7.11743H7.50332ZM7.50332 17.2469V20.2591H0.739499V17.2469H7.50332ZM0.739499 23.2605V20.9987H7.50332V23.2605H0.739499Z" fill="#1D1D1B"/>
<path d="M4.87119 4.12687H4.49061V1.12012H3.75106V4.12687H3.37048V4.86637H4.87119V4.12687Z" fill="#1D1D1B"/>
<path d="M6.74698 18.0078H1.49487V18.7474H6.74698V18.0078Z" fill="white"/>
<path d="M5.24578 19.1333H2.99475V19.8728H5.24578V19.1333Z" fill="white"/>
<path d="M10.5039 6.00293V24.0002H16.8709V6.00293H10.5039ZM16.1314 6.74243V9.52741L11.2435 12.1342V6.74243H16.1314ZM11.2435 23.2607V12.9723L16.1314 10.3654V23.2607H11.2435Z" fill="#1D1D1B"/>
<path d="M13.1253 7.50342H11.9998V8.24296H13.1253V7.50342Z" fill="#1D1D1B"/>
<path d="M15.3762 17.2578H11.9995V17.9974H15.3762V17.2578Z" fill="white"/>
<path d="M15.3762 18.3833H11.9995V19.1228H15.3762V18.3833Z" fill="white"/>
<path d="M14.6258 19.5088H12.7499V20.2483H14.6258V19.5088Z" fill="white"/>
</svg>
