<svg width="24" height="24" viewBox="0 0 24 24" fill="none" xmlns="http://www.w3.org/2000/svg">
<path fill-rule="evenodd" clip-rule="evenodd" d="M16.3629 10.134V9.363C16.3629 6.95338 14.4095 5 11.9999 5C9.59028 5 7.6369 6.95338 7.6369 9.363V10.134C6.99502 10.3562 6.55961 10.9549 6.5459 11.634V17.361C6.56571 17.8208 6.76943 18.2535 7.11128 18.5616C7.45313 18.8698 7.90447 19.0278 8.3639 19H15.6359C16.0948 19.0278 16.5457 18.8703 16.8875 18.5627C17.2293 18.2551 17.4333 17.8233 17.4539 17.364V11.637C17.4414 10.9568 17.0058 10.3566 16.3629 10.134ZM11.9999 7.182C13.2041 7.1831 14.1802 8.15876 14.1819 9.363V10H9.8179V9.363C9.81955 8.15876 10.7957 7.1831 11.9999 7.182Z" fill="#C1C7D0"/>
</svg>
