<svg width="42" height="42" viewBox="0 0 42 42" fill="none" xmlns="http://www.w3.org/2000/svg">
<path d="M21.0248 3.49837C11.3596 3.49837 3.52479 11.3331 3.52479 20.9984C3.52479 30.6636 11.3596 38.4984 21.0248 38.4984C30.6901 38.4984 38.5248 30.6636 38.5248 20.9984C38.5248 11.3331 30.6901 3.49837 21.0248 3.49837ZM28.0248 15.7484C28.4728 15.7484 28.9401 15.8989 29.2831 16.2401C29.9656 16.9244 29.9656 18.0724 29.2831 18.7566L22.7206 25.2649C20.7063 27.2774 17.6281 26.9764 16.0478 24.6069L14.2978 21.9819C13.7623 21.1786 13.9863 20.0586 14.7913 19.5214C15.5945 18.9859 16.7146 19.2099 17.2518 20.0149L19.0018 22.6399C19.3553 23.1701 19.8086 23.2541 20.2583 22.8026L26.7666 16.2401C27.1096 15.8989 27.5768 15.7484 28.0248 15.7484Z" fill="#36B37E"/>
</svg>
