<svg width="20" height="24" viewBox="0 0 20 24" fill="none" xmlns="http://www.w3.org/2000/svg">
<path d="M9.63833 0.32544C9.65654 0.344991 9.67859 0.360583 9.7031 0.371244C9.7276 0.381905 9.75404 0.387406 9.78076 0.387406C9.80749 0.387406 9.83392 0.381905 9.85843 0.371244C9.88294 0.360583 9.90498 0.344991 9.9232 0.32544C10.4193 -0.207507 11.4575 -0.0437156 11.8428 0.511267C12.51 1.47834 12.0473 2.94656 9.9884 3.74461C9.85477 3.79573 9.70698 3.79573 9.57335 3.74461C7.51472 2.94656 7.05174 1.47834 7.72213 0.511267C8.10446 -0.0437156 9.14241 -0.207507 9.63833 0.32544ZM13.7842 9.96346H3.78114C3.70254 9.96346 3.62716 9.93224 3.57159 9.87666C3.51601 9.82109 3.48479 9.74571 3.48479 9.66712C3.48479 9.58852 3.51601 9.51314 3.57159 9.45757C3.62716 9.40199 3.70254 9.37077 3.78114 9.37077H13.7842C13.8628 9.37077 13.9382 9.40199 13.9938 9.45757C14.0493 9.51314 14.0806 9.58852 14.0806 9.66712C14.0806 9.74571 14.0493 9.82109 13.9938 9.87666C13.9382 9.93224 13.8628 9.96346 13.7842 9.96346Z" fill="#FFEBE5" fill-opacity="0.2"/>
<path d="M17.6934 10.0729C17.6559 9.97615 17.1028 6.31299 16.6712 5.41385C16.5514 5.16396 16.3836 4.81411 16.0885 4.73233C15.97 4.71456 15.849 4.72212 15.7337 4.7545C15.6183 4.78688 15.5111 4.84336 15.4192 4.9202C15.3833 4.94746 15.3386 4.96054 15.2936 4.95693C15.2486 4.95333 15.2066 4.9333 15.1754 4.90066C15.0728 4.79914 14.9456 4.72599 14.8062 4.68836C14.6669 4.65073 14.5201 4.64991 14.3803 4.68598C14.2432 4.7333 14.1188 4.81166 14.0169 4.91497C13.9811 4.94198 13.9379 4.95722 13.8932 4.9586C13.8484 4.95999 13.8043 4.94744 13.767 4.9227C13.5851 4.74585 13.343 4.6444 13.0893 4.63873C12.8452 4.63258 12.607 4.71442 12.4183 4.86931C12.3553 4.92879 12.2727 4.96303 12.1861 4.96551C12.0996 4.96798 12.0151 4.93851 11.9489 4.88272C11.7661 4.73523 11.5384 4.65439 11.3035 4.6535C11.0379 4.66424 10.7808 4.74993 10.5618 4.90066C10.5281 4.9217 10.4889 4.93198 10.4492 4.93011C10.4095 4.92824 10.3714 4.91432 10.3399 4.89021C10.0996 4.71561 9.80772 4.62658 9.5109 4.63737C9.3501 4.63038 9.18953 4.65558 9.0386 4.71148C8.88767 4.76738 8.74942 4.85286 8.63197 4.96291C8.59639 4.99548 8.55012 5.01388 8.50189 5.01463C8.45367 5.01539 8.40684 4.99844 8.37027 4.967C8.16637 4.77553 7.8952 4.67219 7.6156 4.6794C7.38879 4.67958 7.16924 4.75933 6.99519 4.90475C6.95867 4.93323 6.91357 4.94847 6.86727 4.94797C6.82097 4.94748 6.7762 4.93128 6.7403 4.90203C6.52387 4.72437 6.25079 4.63044 5.97087 4.63737C5.82217 4.63467 5.67443 4.66171 5.53632 4.71691C5.39822 4.77211 5.27255 4.85436 5.16668 4.95882C5.13161 4.99358 5.08477 5.01391 5.03543 5.01581C4.98609 5.0177 4.93784 5.00101 4.90021 4.96904C4.73482 4.8206 4.5294 4.72413 4.30956 4.69166C4.08081 4.66079 3.84858 4.71306 3.65513 4.83897C3.46168 4.96488 3.31986 5.15606 3.25548 5.37772C3.07374 6.02358 2.96401 7.32732 2.84657 8.2744C2.73298 9.19831 2.60099 9.67151 2.38495 10.09C0.15139 14.4174 -0.123261 19.4552 0.0380314 22.9204C0.0514325 23.2116 0.176694 23.4864 0.387709 23.6875C0.598724 23.8886 0.879212 24.0006 1.17071 24H18.1482C18.4302 23.9989 18.7017 23.893 18.9099 23.7029C19.1181 23.5128 19.2482 23.252 19.2748 22.9713C19.5272 20.0419 19.2 13.9167 17.6934 10.0729ZM10.3608 14.727L9.37732 15.7104C9.26658 15.8219 9.13493 15.9105 8.98992 15.971C8.84491 16.0315 8.68938 16.0629 8.53224 16.0632C8.3586 16.0619 8.18761 16.0206 8.03246 15.9426L7.66217 16.3129L9.21785 17.8684C9.32584 17.9763 9.38653 18.1228 9.38655 18.2755C9.38657 18.4282 9.32593 18.5747 9.21796 18.6827C9.10999 18.7907 8.96354 18.8513 8.81083 18.8514C8.65812 18.8514 8.51166 18.7907 8.40366 18.6828L7.02472 17.3038L5.66169 18.6669C5.60847 18.7212 5.54499 18.7645 5.47493 18.7942C5.40488 18.8239 5.32963 18.8393 5.25355 18.8397C5.17747 18.8402 5.10207 18.8255 5.0317 18.7965C4.96133 18.7676 4.8974 18.725 4.8436 18.6712C4.7898 18.6174 4.74721 18.5535 4.71828 18.4831C4.68935 18.4128 4.67466 18.3373 4.67507 18.2613C4.67548 18.1852 4.69096 18.1099 4.72064 18.0399C4.75031 17.9698 4.79359 17.9064 4.84796 17.8531L6.36842 16.3327L6.03311 15.9958C5.98754 16.0158 5.94054 16.0323 5.89249 16.0453C5.61023 16.1223 5.31222 16.1203 5.031 16.0396C4.74977 15.9588 4.49613 15.8024 4.29774 15.5873C4.08044 15.3606 3.92379 15.0828 3.84226 14.7795C3.78896 14.5746 3.79015 14.3594 3.8457 14.1551C3.90126 13.9508 4.00926 13.7646 4.15898 13.615C4.30871 13.4653 4.49496 13.3574 4.69926 13.3019C4.90356 13.2465 5.1188 13.2454 5.32365 13.2988C5.62678 13.3801 5.90458 13.5363 6.13148 13.7531C6.34568 13.9522 6.50154 14.2059 6.58228 14.4869C6.66302 14.768 6.66558 15.0657 6.58969 15.3481C6.57305 15.4081 6.55092 15.4664 6.52358 15.5223L6.91909 15.9188C6.97952 15.9135 7.04026 15.9125 7.10083 15.916C7.10582 15.9106 7.5454 15.4655 7.5454 15.4655C7.43249 15.2439 7.39304 14.9921 7.43278 14.7466C7.47252 14.501 7.58938 14.2745 7.76644 14.0998L8.7501 13.1161C8.78153 13.0836 8.81913 13.0576 8.86071 13.0398C8.90228 13.0219 8.94699 13.0125 8.99224 13.0121C9.03749 13.0117 9.08236 13.0203 9.12424 13.0375C9.16611 13.0546 9.20416 13.0799 9.23616 13.1119C9.26815 13.1439 9.29345 13.1819 9.31059 13.2238C9.32772 13.2657 9.33634 13.3106 9.33595 13.3558C9.33556 13.4011 9.32615 13.4458 9.3083 13.4874C9.29044 13.5289 9.26448 13.5665 9.23193 13.598L8.24827 14.5814C8.20082 14.6227 8.16237 14.6733 8.1353 14.7302C8.10823 14.787 8.09313 14.8487 8.09094 14.9116C8.08874 14.9745 8.09949 15.0372 8.12253 15.0957C8.14556 15.1543 8.18039 15.2075 8.22484 15.252C8.2693 15.2965 8.32243 15.3315 8.38095 15.3546C8.43946 15.3777 8.50211 15.3886 8.565 15.3865C8.62789 15.3844 8.68968 15.3694 8.74653 15.3425C8.80338 15.3155 8.85408 15.2771 8.89549 15.2297L9.87892 14.2461C9.91057 14.2144 9.94815 14.1894 9.9895 14.1722C10.0308 14.1551 10.0752 14.1463 10.1199 14.1463C10.1647 14.1463 10.209 14.1552 10.2503 14.1723C10.2917 14.1894 10.3292 14.2145 10.3609 14.2462C10.3925 14.2779 10.4176 14.3154 10.4347 14.3568C10.4518 14.3981 10.4606 14.4424 10.4606 14.4872C10.4606 14.5319 10.4518 14.5763 10.4347 14.6176C10.4175 14.6589 10.3924 14.6965 10.3608 14.7281V14.727ZM9.79646 13.6807C9.86034 13.7446 9.89622 13.8312 9.89622 13.9216C9.89622 14.0119 9.86034 14.0986 9.79646 14.1625L9.17718 14.7815C9.14575 14.8141 9.10815 14.84 9.06657 14.8579C9.025 14.8758 8.98029 14.8852 8.93504 14.8855C8.88979 14.8859 8.84492 14.8773 8.80305 14.8602C8.76117 14.8431 8.72312 14.8177 8.69113 14.7858C8.65913 14.7538 8.63383 14.7157 8.6167 14.6738C8.59956 14.632 8.59094 14.5871 8.59133 14.5418C8.59173 14.4966 8.60113 14.4519 8.61899 14.4103C8.63684 14.3687 8.6628 14.3311 8.69535 14.2997L9.31462 13.6807C9.37852 13.6168 9.46518 13.5809 9.55554 13.5809C9.6459 13.5809 9.73255 13.6168 9.79646 13.6807ZM11.0173 8.3714C10.9623 8.42691 10.8968 8.47095 10.8247 8.50098C10.7525 8.53101 10.6751 8.54642 10.597 8.54633H7.43704C7.27983 8.54621 7.12908 8.4837 7.01792 8.37253C6.90675 8.26136 6.84424 8.11062 6.84412 7.95341C6.84374 7.93898 6.8445 7.92455 6.84639 7.91024C6.8554 7.7682 6.91695 7.63458 7.01904 7.53541C7.07347 7.47976 7.1385 7.43561 7.21031 7.40556C7.28211 7.37552 7.35921 7.36019 7.43704 7.36049H10.597C10.7468 7.36013 10.8912 7.41671 11.0008 7.51878C11.1105 7.62086 11.1773 7.76079 11.1877 7.91024C11.1895 7.92455 11.1903 7.93898 11.1899 7.95341C11.1901 8.03102 11.175 8.10791 11.1453 8.17964C11.1157 8.25138 11.0722 8.31655 11.0173 8.3714ZM18.5958 22.9127C18.5848 23.0238 18.5328 23.1269 18.4501 23.2019C18.3673 23.2769 18.2597 23.3184 18.148 23.3184H13.8906C13.8399 23.3188 13.7909 23.2998 13.7537 23.2654C13.7165 23.231 13.6938 23.1837 13.6902 23.1331C13.5618 21.2584 13.2433 14.4921 14.9608 10.3539C15.1329 9.94414 15.2447 9.51159 15.2929 9.06973C15.3699 8.32529 15.5251 6.82822 15.5201 5.98269C15.5227 5.92535 15.5471 5.87116 15.5882 5.83116C15.6777 5.72174 15.8017 5.64597 15.9399 5.61626C15.9663 5.61868 15.9914 5.62864 16.0123 5.64495C16.0332 5.66127 16.049 5.68324 16.0578 5.70826C16.4453 6.51518 16.688 8.12401 16.8486 9.18854C16.8887 9.57102 16.9592 9.9497 17.0594 10.321C18.462 13.9012 18.8531 19.934 18.5958 22.9127Z" fill="#FFEBE5" fill-opacity="0.2"/>
</svg>
