<svg width="24" height="24" viewBox="0 0 24 24" fill="none" xmlns="http://www.w3.org/2000/svg">
<path fill-rule="evenodd" clip-rule="evenodd" d="M17.2701 5.305L6.63411 5C6.56597 5.00507 6.49875 5.01885 6.43411 5.041C6.39321 5.04581 6.35275 5.05384 6.31311 5.065C6.21365 5.10555 6.12298 5.16498 6.04611 5.24H6.04011C5.87834 5.39772 5.78711 5.61407 5.78711 5.84V17.491C5.78764 17.7151 5.87717 17.9298 6.03602 18.0879C6.19486 18.246 6.41 18.3345 6.63411 18.334L14.2601 19C14.4844 19.0008 14.6998 18.9124 14.8588 18.7543C15.0179 18.5962 15.1076 18.3813 15.1081 18.157V9.2C15.1076 8.97572 15.0179 8.76085 14.8588 8.60273C14.6998 8.4446 14.4844 8.3562 14.2601 8.357L8.37311 8.047C8.00851 8.033 7.72016 7.73336 7.72016 7.3685C7.72016 7.00364 8.00851 6.704 8.37311 6.69L15.5071 6.99H16.0241C16.245 6.99 16.4241 7.16909 16.4241 7.39V16.69C16.4241 17.1578 16.8033 17.537 17.2711 17.537C17.7389 17.537 18.1181 17.1578 18.1181 16.69V6.152C18.117 5.68428 17.7378 5.30555 17.2701 5.305Z" fill="#C1C7D0"/>
</svg>
