<svg width="24" height="29" viewBox="0 0 24 29" fill="none" xmlns="http://www.w3.org/2000/svg">
<path d="M17.6063 0C17.7719 2.63512 16.6049 4.59264 14.4968 6.04572C13.7063 6.58781 12.7802 6.74591 11.7563 6.6631C11.7939 6.18125 11.7713 5.69186 11.8692 5.21754C12.3887 2.56736 14.4592 0.542079 17.1093 0.0526988C17.1621 0.0451699 17.2148 0.0150578 17.2675 0C17.3804 0 17.4933 0 17.6063 0Z" fill="black"/>
<path d="M23.6746 21.2843C23.4939 21.7435 23.3433 22.1877 23.1551 22.6169C22.4022 24.3561 21.3707 25.9371 20.151 27.3827C19.5111 28.1356 18.7582 28.7379 17.7418 28.9035C16.8985 29.0391 16.0929 28.8508 15.3024 28.5647C14.7453 28.3615 14.1957 28.1431 13.6235 27.9775C12.5619 27.6763 11.5154 27.8043 10.4839 28.1582C9.76112 28.4066 9.04587 28.6626 8.31556 28.8809C7.41209 29.152 6.55379 28.9487 5.83102 28.384C5.24376 27.9323 4.68662 27.4279 4.2123 26.8557C2.05903 24.2431 0.688764 21.2541 0.184326 17.8962C-0.0942444 16.0291 -0.109301 14.177 0.508071 12.3625C1.34378 9.90806 2.88721 8.13123 5.41693 7.31811C6.64414 6.92661 7.87136 6.97931 9.08351 7.3934C9.79876 7.63432 10.4989 7.90537 11.2067 8.16888C11.7864 8.38722 12.3435 8.3044 12.9157 8.10865C13.9547 7.74726 14.9862 7.28047 16.0553 7.12236C18.7507 6.72333 21.0771 7.46116 22.7711 9.72737C22.8012 9.77254 22.8313 9.81771 22.8765 9.893C20.7006 11.2708 19.5939 13.2057 19.7896 15.8258C19.9779 18.4308 21.3557 20.17 23.6746 21.2843Z" fill="black"/>
</svg>
