<svg width="29" height="29" viewBox="0 0 29 29" fill="none" xmlns="http://www.w3.org/2000/svg">
<path d="M29 13.4491C29 14.2259 29 15.0103 29 15.787C28.9168 15.8251 28.947 15.9013 28.9395 15.9622C28.8638 16.6095 28.7805 17.2645 28.6215 17.8965C27.6222 21.9937 25.3056 25.1161 21.6869 27.2561C20.1728 28.1547 18.53 28.7183 16.7812 28.9924C16.7737 28.9391 16.7661 28.901 16.7661 28.8706C16.7661 25.5883 16.7661 22.2983 16.7585 19.016C16.7585 18.818 16.8418 18.8104 16.9932 18.8104C17.9168 18.818 18.8404 18.8104 19.7716 18.8104C20.1728 18.8104 20.1652 18.8104 20.2182 18.4068C20.3924 17.2264 20.5665 16.046 20.7557 14.8732C20.7936 14.6295 20.7482 14.5838 20.5211 14.5914C19.3476 14.599 18.1818 14.599 17.0083 14.599C16.8796 14.599 16.7509 14.6295 16.7585 14.4086C16.7737 13.5252 16.7434 12.6418 16.7737 11.7584C16.8115 10.4866 17.455 9.80122 18.7117 9.62606C19.3855 9.53467 20.0668 9.5956 20.7482 9.58798C20.8996 9.58798 20.9601 9.55752 20.9601 9.38998C20.9526 8.31619 20.9526 7.24239 20.9601 6.1686C20.9601 6.01629 20.8996 5.96298 20.7709 5.94775C19.4082 5.77259 18.0379 5.58982 16.6601 5.77259C15.6911 5.90205 14.7978 6.24475 14.0407 6.88446C12.7764 7.95825 12.2919 9.38998 12.2389 10.9892C12.2011 12.1087 12.2238 13.2282 12.2389 14.3477C12.2389 14.5457 12.1935 14.599 11.9891 14.599C10.9217 14.5914 9.85421 14.599 8.78677 14.5914C8.61265 14.5914 8.54452 14.6219 8.54452 14.8199C8.55209 16.0764 8.55209 17.3254 8.54452 18.582C8.54452 18.7723 8.59751 18.818 8.7792 18.818C9.82393 18.8104 10.8762 18.818 11.921 18.8104C12.1632 18.8104 12.2389 18.8561 12.2314 19.115C12.2238 22.3136 12.2238 25.5121 12.2238 28.7183C12.2238 28.8096 12.2465 28.9086 12.1935 29C10.2706 28.6954 8.47638 28.0252 6.83358 26.9819C1.6705 23.692 -0.873195 17.7899 0.269952 11.7584C1.39796 5.78021 6.3415 1.03572 12.3449 0.159927C12.6856 0.114233 13.0338 0.121849 13.3594 0C14.1164 0 14.8735 0 15.6229 0C15.6532 0.06854 15.7138 0.0533086 15.7668 0.0533086C17.9622 0.251313 20.0214 0.891019 21.8989 2.04858C25.7674 4.44748 28.0916 7.89733 28.8335 12.421C28.894 12.7713 28.8789 13.1216 29 13.4491Z" fill="#1877F1"/>
</svg>
