<svg width="29" height="29" viewBox="0 0 29 29" fill="none" xmlns="http://www.w3.org/2000/svg">
<path d="M15.6269 0C15.975 0.128648 16.3383 0.105946 16.694 0.166486C19.2669 0.575133 21.5599 1.58918 23.5956 3.2162C23.7166 3.31458 23.7242 3.35999 23.6031 3.46593C22.135 4.6616 20.6669 5.86484 19.1988 7.06808C19.0626 7.18159 18.9718 7.14376 18.8507 7.06808C17.4658 6.25835 15.975 5.86484 14.3707 5.88755C10.8594 5.92538 7.68859 8.1351 6.43994 11.4194C6.40967 11.5102 6.36427 11.5935 6.32643 11.6767C5.80427 11.2605 5.28968 10.8367 4.76752 10.4205C3.71563 9.56537 2.66374 8.71024 1.61942 7.86267C1.64212 7.8097 1.65726 7.75673 1.68753 7.71132C4.0259 3.51891 7.55237 0.998915 12.2821 0.181621C12.6378 0.121081 13.0086 0.143784 13.3567 0.0151354C14.1134 3.46189e-07 14.8702 0 15.6269 0Z" fill="#F04336"/>
<path d="M1.62702 7.85513C2.67891 8.71026 3.72323 9.56539 4.77512 10.413C5.28971 10.8367 5.81187 11.253 6.33403 11.6692C6.09187 12.5092 5.90268 13.3567 5.87998 14.2421C5.84971 15.3773 6.04646 16.467 6.41727 17.534C4.85836 18.8054 3.29945 20.0843 1.74053 21.3556C0.98378 20.0162 0.514593 18.5708 0.227026 17.0648C0.136216 16.5881 0.136216 16.0962 0 15.627C0 14.8702 0 14.1135 0 13.3643C0.0529728 13.3416 0.0529737 13.2886 0.0529737 13.2432C0.0983789 12.6984 0.174054 12.1611 0.28 11.6238C0.552431 10.307 0.968645 9.03567 1.62702 7.85513Z" fill="#004BFD"/>
<path d="M18.8508 21.9458C20.107 21.1739 21.1437 20.175 21.9005 18.8961C22.1199 18.5328 22.294 18.1469 22.4756 17.7609C22.574 17.5491 22.5059 17.5112 22.3016 17.5112C20.7275 17.5188 19.1535 17.5112 17.5718 17.5112C16.7394 17.5112 15.9145 17.5037 15.0821 17.5112C14.8929 17.5112 14.8173 17.4658 14.8248 17.2615C14.8324 15.5134 14.8324 13.7729 14.8248 12.0248C14.8248 11.8204 14.8929 11.775 15.0821 11.775C19.5545 11.7826 24.0269 11.7826 28.4994 11.775C28.6886 11.775 28.7491 11.8356 28.7794 12.0248C29.4756 16.4442 28.401 20.3793 25.5707 23.8377C24.9805 24.5566 24.3221 25.2225 23.5653 25.7825C23.4442 25.6917 23.3307 25.6009 23.2097 25.5025C21.7491 24.3144 20.2962 23.1263 18.8508 21.9458Z" fill="#518EF7"/>
<path d="M18.8507 21.9459C20.3037 23.134 21.7567 24.3145 23.2097 25.5026C23.3232 25.601 23.4442 25.6918 23.5653 25.7826C22.6042 26.5999 21.5297 27.2356 20.3794 27.7426C18.0637 28.7718 15.6421 29.1956 13.1297 28.9156C8.07457 28.348 4.2908 25.8205 1.76324 21.4086C1.75568 21.3934 1.74811 21.3707 1.74811 21.3556C3.30702 20.0843 4.86593 18.8053 6.42485 17.534C6.8789 18.654 7.49944 19.668 8.35457 20.5307C11.0713 23.2929 15.2562 23.9059 18.6616 22.0443C18.7145 22.0064 18.7826 21.9762 18.8507 21.9459Z" fill="#28B346"/>
</svg>
