<svg width="42" height="42" viewBox="0 0 42 42" fill="none" xmlns="http://www.w3.org/2000/svg">
<rect width="42" height="42" rx="5" fill="#D9D9D9"/>
<path d="M26.5783 10.5H16.0782C14.6309 10.5 13.4531 11.6778 13.4531 13.125V31.5002H20.4532V26.2502H22.2032V31.5002H29.2033V13.125C29.2033 11.6778 28.0255 10.5 26.5783 10.5ZM27.4533 29.7502H23.9532V26.2502H25.7032V24.5001H16.9532V26.2502H18.7032V29.7502H15.2031V13.125C15.2031 12.6429 15.596 12.25 16.0782 12.25H26.5783C27.0604 12.25 27.4533 12.6429 27.4533 13.125V29.7502ZM16.9532 21.0001H18.7032V22.7501H16.9532V21.0001ZM23.9532 21.0001H25.7032V22.7501H23.9532V21.0001ZM16.9532 14H18.7032V15.7501H16.9532V14ZM23.9532 14H25.7032V15.7501H23.9532V14ZM16.9532 17.5001H18.7032V19.2501H16.9532V17.5001ZM23.9532 17.5001H25.7032V19.2501H23.9532V17.5001ZM20.4532 21.0001H22.2032V22.7501H20.4532V21.0001ZM20.4532 14H22.2032V15.7501H20.4532V14ZM20.4532 17.5001H22.2032V19.2501H20.4532V17.5001Z" fill="#1E1E1E"/>
</svg>
