<svg width="100" height="100" viewBox="0 0 100 100" fill="none" xmlns="http://www.w3.org/2000/svg">
<rect width="100" height="100" rx="50" fill="#004BFD" fill-opacity="0.1"/>
<path d="M71.2999 52.1669C71.2999 53.0307 70.9486 53.8119 70.3807 54.3774C69.8118 54.9429 69.0272 55.2927 68.1607 55.2927H31.8392C30.1062 55.2927 28.7 53.8936 28.7 52.1669C28.7 51.7044 28.8005 51.2662 28.9811 50.8717C29.1372 50.5311 29.3533 50.2211 29.6192 49.9564C30.1881 49.3909 30.9727 49.0412 31.8392 49.0412H68.1608C69.4303 49.0412 70.5242 49.7912 71.0189 50.8717C71.2048 51.2784 71.3006 51.7201 71.2999 52.1669Z" fill="#884D00"/>
<path d="M71.0189 50.8717C70.8625 51.2119 70.6464 51.5215 70.3808 51.7861C69.8119 52.3516 69.0273 52.7014 68.1608 52.7014H31.8392C30.5707 52.7014 29.4768 51.9513 28.9811 50.8718C29.1371 50.5312 29.3533 50.2212 29.6192 49.9565C30.1881 49.391 30.9727 49.0412 31.8392 49.0412H68.1608C69.4302 49.0411 70.5241 49.7913 71.0189 50.8717Z" fill="#AA6100"/>
<path d="M74 57.8159C74 61.8433 72.1274 64.8359 69.1004 66.8209C66.0725 68.8069 61.8902 69.7854 57.2707 69.7854H42.7292C33.4903 69.7854 26 65.8707 26 57.8159C26 57.367 26.1122 56.9414 26.3152 56.5586C26.4869 56.2322 26.724 55.9377 27.0119 55.687C27.6365 55.1419 28.5011 54.8048 29.4544 54.8048H70.5457C71.9382 54.8048 73.1384 55.5237 73.6849 56.5586C73.8878 56.9415 74 57.3671 74 57.8159Z" fill="#FFA733"/>
<path d="M73.6848 56.5587C73.033 59.2404 71.3995 61.3293 69.1004 62.8373C66.0725 64.8233 61.8902 65.8017 57.2707 65.8017H42.7292C34.6007 65.8017 27.8267 62.7721 26.3152 56.5586C26.4869 56.2322 26.724 55.9377 27.0119 55.687C27.6365 55.1419 28.5011 54.8049 29.4544 54.8049H70.5457C71.9382 54.8049 73.1383 55.5239 73.6848 56.5587Z" fill="#FFB655"/>
<path d="M63.3488 47.7295L55.2281 55.8154C55.0283 56.0141 54.8101 56.1934 54.5762 56.3508C52.8568 57.5099 50.5013 57.3322 48.978 55.8154L40.8573 47.7295H63.3488Z" fill="#EEBF00"/>
<path d="M63.3488 47.7295L55.2281 55.8154C55.0283 56.0141 54.8101 56.1934 54.5762 56.3508C53.9373 56.1343 53.3573 55.7739 52.8812 55.2976L45.2806 47.7295H63.3488Z" fill="#FFD422"/>
<path d="M73.0886 48.8576C73.0886 49.2812 73.0183 49.7145 72.8661 50.1372C72.2698 51.7938 70.6735 52.437 69.4293 51.5217L67.9373 50.4248C66.8961 49.6582 65.568 49.972 64.8147 51.1633L64.7512 51.2633C64.0281 52.4079 62.7673 52.7479 61.7379 52.0775L58.3967 49.902C57.6258 49.4007 56.7017 49.4551 55.9719 50.0468L53.2943 52.2155C52.5253 52.8383 51.5457 52.8645 50.7562 52.2825L47.7019 50.0283C46.9212 49.4522 45.9533 49.4706 45.1873 50.0769L42.4062 52.2758C41.6597 52.8656 40.721 52.8995 39.9492 52.3661L36.3484 49.8749C35.6399 49.3852 34.7862 49.3715 34.0679 49.8389L30.7092 52.0261C28.4727 52.3127 27.3847 50.6775 27.3847 50.6775C26.849 49.7505 26.7953 48.6516 27.0852 47.7295C27.4296 46.6277 28.264 45.7786 29.349 45.7786H70.6521C71.7157 45.7786 72.5656 46.6151 72.915 47.7247C73.0306 48.0913 73.0892 48.4733 73.0886 48.8576Z" fill="#6DC82A"/>
<path d="M72.9149 47.7247C72.9003 47.7732 72.8837 47.8208 72.8662 47.8695C72.2699 49.527 70.6736 50.1703 69.4294 49.255L67.9374 48.1571C66.8962 47.3914 65.5681 47.7053 64.8148 48.8955L64.7513 48.9966C64.0282 50.1411 62.7674 50.4812 61.738 49.8107L58.3968 47.6353C57.6259 47.1329 56.7018 47.1883 55.972 47.78L53.2944 49.9487C52.5254 50.5715 51.5457 50.5968 50.7563 50.0148L47.702 47.7606C46.9213 47.1845 45.9534 47.2039 45.1873 47.8092L42.4062 50.0089C41.6597 50.5978 40.721 50.6327 39.9492 50.0993L36.3484 47.608C35.6399 47.1174 34.7862 47.1037 34.0679 47.5721L30.7092 49.7582C28.4727 50.0458 27.3847 48.4096 27.3847 48.4096C27.2607 48.1942 27.1603 47.9662 27.0852 47.7295C27.4296 46.6277 28.264 45.7784 29.349 45.7784H70.6521C71.7156 45.7785 72.5655 46.6151 72.9149 47.7247Z" fill="#7ED63E"/>
<path d="M72.2552 43.7789C72.2619 44.093 72.2215 44.4064 72.1352 44.7087C71.7576 46.0185 70.5456 46.9765 69.1092 46.9765C63.4691 46.9765 48.4465 46.8502 46.1807 46.925C46.13 46.9269 46.0793 46.9289 46.0295 46.9298C43.1684 47.0376 42.5166 47.4943 42.5166 49.013V54.5697C42.5166 54.8554 42.4004 55.1148 42.2122 55.3023C42.1158 55.3986 42.0013 55.4749 41.8752 55.5269C41.7491 55.5789 41.6139 55.6056 41.4774 55.6054C40.9026 55.6054 40.4371 56.0689 40.4371 56.6412V59.0615C40.4371 59.3073 40.4079 59.5454 40.3512 59.7747C40.0303 61.0981 38.8309 62.0804 37.3906 62.0804H37.3136C35.6761 62.0804 34.351 60.7561 34.3558 59.1257L34.3695 54.7446C34.3698 54.5846 34.4017 54.4262 34.4635 54.2785C34.5253 54.1308 34.6157 53.9967 34.7296 53.8838C34.8434 53.7705 34.9785 53.6807 35.1272 53.6195C35.2759 53.5583 35.4353 53.527 35.5962 53.5272C36.2734 53.5272 36.8228 52.9802 36.8228 52.3058V49.013C36.8228 47.8879 35.9075 46.9765 34.7775 46.9765H30.9503C29.228 46.9765 27.7789 45.623 27.7438 43.9081C27.7086 42.1485 29.1313 40.7105 30.8907 40.7105H69.0468C70.77 40.7105 72.2211 42.064 72.2552 43.7789Z" fill="#FF3501"/>
<path d="M72.2552 43.7789C72.2619 44.093 72.2215 44.4064 72.1352 44.7087C66.1643 44.7029 51.8969 44.5853 49.6936 44.6572C46.7037 44.7553 46.0295 45.2013 46.0295 46.7462V46.9298C43.1684 47.0376 42.5166 47.4943 42.5166 49.013V54.5697C42.5166 54.8554 42.4004 55.1148 42.2122 55.3023C42.1158 55.3986 42.0013 55.4749 41.8752 55.5269C41.7491 55.5789 41.6139 55.6056 41.4774 55.6054C40.9026 55.6054 40.4371 56.0689 40.4371 56.6412V59.0615C40.4371 59.3073 40.4079 59.5454 40.3512 59.7747C38.9402 59.5483 37.8639 58.327 37.8687 56.8579L37.8824 52.4778C37.8826 52.3178 37.9144 52.1593 37.9762 52.0116C38.038 51.8639 38.1285 51.7297 38.2425 51.6169C38.3563 51.5036 38.4914 51.4138 38.6401 51.3526C38.7888 51.2915 38.9482 51.2601 39.1091 51.2603C39.7863 51.2603 40.3357 50.7133 40.3357 50.039V46.7461C40.3357 45.621 39.4204 44.7096 38.2904 44.7096H34.4632C32.7409 44.7096 31.2918 43.3562 31.2567 41.6413C31.2498 41.3267 31.2906 41.0129 31.3777 40.7105H69.0468C70.77 40.7105 72.2211 42.064 72.2552 43.7789Z" fill="#FF5023"/>
<path d="M54.2535 37.5255L47.2911 44.461C46.5934 45.1556 45.7708 45.6502 44.8945 45.9427C42.734 46.6695 40.2516 46.1749 38.5322 44.461L31.567 37.5255H54.2535Z" fill="#EEBF00"/>
<path d="M54.2535 37.5255L47.2911 44.461C46.5934 45.1556 45.7708 45.6502 44.8945 45.9427C44.0191 45.6502 43.1966 45.1556 42.4998 44.461L35.5345 37.5255H54.2535Z" fill="#FFD422"/>
<path d="M74 38.501C74 38.5526 73.998 38.6031 73.9951 38.6536C73.9585 39.2846 73.69 39.8802 73.2408 40.3267C73.0003 40.5669 72.7145 40.7572 72.3998 40.887C72.0852 41.0167 71.7478 41.0832 71.4072 41.0827H28.5928C27.1612 41.0826 26 39.9264 26 38.501C26 35.4074 27.4403 33.0784 29.6154 31.3265C31.3806 29.9041 33.6308 28.8615 35.9864 28.0968C42.5771 25.9603 50 26.0001 50 26.0001C50 26.0001 74 25.8709 74 38.501Z" fill="#FFA733"/>
<path d="M74 38.501C74 38.5526 73.998 38.6031 73.9951 38.6536H33.8621C32.4306 38.6536 31.2693 37.4974 31.2693 36.0719C31.2693 32.9783 32.7096 30.6493 34.8847 28.8975C35.234 28.6157 35.602 28.3495 35.9864 28.0968C42.5771 25.9603 50 26.0001 50 26.0001C50 26.0001 74 25.8709 74 38.501Z" fill="#FFB655"/>
<path d="M62.9 30.5164C63.3162 30.955 63.2965 31.6464 62.8561 32.0609C62.4157 32.4752 61.7213 32.4556 61.3051 32.0172C60.889 31.5787 60.1229 30.0593 60.5634 29.6448C61.0038 29.2304 62.4838 30.0778 62.9 30.5164ZM57.0842 35.9156C57.3014 36.4788 57.019 37.1108 56.4533 37.3271C55.8876 37.5434 55.2529 37.2621 55.0357 36.6989C54.8185 36.1356 54.6909 34.4403 55.2565 34.224C55.8222 34.0078 56.867 35.3523 57.0842 35.9156ZM51.0972 31.4223C51.0972 32.0257 50.6059 32.5147 50 32.5147C49.394 32.5147 48.9028 32.0256 48.9028 31.4223C48.9028 30.8189 49.3941 29.1908 50 29.1908C50.606 29.1907 51.0972 30.8189 51.0972 31.4223ZM45.0644 36.6002C44.9129 37.1844 44.3144 37.5356 43.7277 37.3848C43.1411 37.2339 42.7883 36.638 42.9398 36.0538C43.0913 35.4697 43.9758 34.0156 44.5626 34.1664C45.1493 34.3173 45.2159 36.0161 45.0644 36.6002ZM39.0283 31.8415C38.7642 32.3844 38.108 32.6114 37.5626 32.3484C37.0173 32.0853 36.7893 31.432 37.0535 30.8889C37.3177 30.346 38.4726 29.0938 39.018 29.3569C39.5634 29.6201 39.2925 31.2986 39.0283 31.8415Z" fill="#FFF5CC"/>
</svg>
