<svg width="13" height="10" viewBox="0 0 13 10" fill="none" xmlns="http://www.w3.org/2000/svg">
<path d="M8.8644 0.979273C8.41277 1.43168 7.96673 1.87781 7.51441 2.33091C7.13334 2.15729 6.72363 2.08777 6.29261 2.11956C5.221 2.19886 4.28212 3.04115 4.09595 4.09759C4.01072 4.58179 4.05299 5.05097 4.24475 5.50652C4.26011 5.54285 4.25278 5.61237 4.22728 5.63823C3.66947 6.20208 3.10782 6.76209 2.54652 7.32245C2.54058 7.32804 2.53115 7.33014 2.49971 7.34516C2.2863 7.18865 2.05682 7.03249 1.84061 6.85956C1.12527 6.28732 0.54057 5.60119 0.0767188 4.81096C-0.0238755 4.63943 -0.0270193 4.47838 0.07602 4.30755C1.27023 2.32323 3.00723 1.11412 5.28212 0.694901C6.46446 0.476905 7.63317 0.579615 8.77778 0.94888C8.80607 0.957613 8.83436 0.968443 8.8644 0.979273Z" fill="black"/>
<path d="M4.12109 8.12723C4.56364 7.68496 4.99396 7.25281 5.42882 6.82555C5.45327 6.80179 5.52417 6.80284 5.5626 6.81891C6.73235 7.30521 8.08688 6.81926 8.66914 5.68946C9.01599 5.01731 9.04498 4.32314 8.75751 3.6199C8.73481 3.5647 8.72119 3.52453 8.77428 3.47177C9.33139 2.91945 9.88536 2.36398 10.44 1.80991C10.4519 1.79803 10.4669 1.7893 10.4868 1.77393C10.87 2.01148 11.2221 2.28712 11.5515 2.59176C12.0921 3.09238 12.5462 3.66287 12.921 4.29799C13.0279 4.4793 13.0261 4.6449 12.9179 4.82446C11.7603 6.74031 10.0879 7.93649 7.89687 8.38995C6.64678 8.64882 5.41066 8.55414 4.19724 8.15903C4.17663 8.15274 4.15707 8.14261 4.12109 8.12723Z" fill="black"/>
<path d="M2.40074 9.11748C2.18593 9.11469 2.0539 9.03923 1.98195 8.88237C1.90929 8.72341 1.92711 8.56795 2.03993 8.42961C2.06997 8.39258 2.10629 8.36044 2.14017 8.32655C4.85447 5.61209 7.56912 2.89798 10.2824 0.182815C10.384 0.081154 10.4892 -0.00338898 10.6425 0.000104535C10.8154 0.00429675 10.9467 0.0797569 11.019 0.235568C11.0903 0.388933 11.0753 0.54125 10.9694 0.678196C10.9429 0.712433 10.9107 0.742477 10.88 0.77322C8.1657 3.48768 5.4514 6.20179 2.73745 8.91661C2.63127 9.02351 2.52509 9.12552 2.40074 9.11748Z" fill="black"/>
<path d="M8.07451 4.21594C8.18279 4.77456 8.05006 5.27483 7.64524 5.6923C7.25439 6.0951 6.61869 6.27048 6.16602 6.1248C6.79543 5.49492 7.43113 4.85945 8.07451 4.21594Z" fill="black"/>
<path d="M4.92517 4.88882C4.82074 4.36409 4.93705 3.87465 5.31742 3.46556C5.73272 3.01909 6.25316 2.87446 6.83262 2.98136C6.19797 3.61648 5.56122 4.25335 4.92517 4.88882Z" fill="black"/>
</svg>
