<svg width="26" height="26" viewBox="0 0 26 26" fill="none" xmlns="http://www.w3.org/2000/svg">
<path d="M16.8222 6.16792C17.2625 6.16945 17.6661 6.41404 17.8718 6.80329C18.0774 7.19263 18.052 7.66404 17.8051 8.02859L10.1836 19.3129C9.95743 19.6951 9.53714 19.9196 9.09366 19.8957C8.65008 19.8718 8.25615 19.6032 8.07241 19.1987C7.88877 18.7944 7.94527 18.3212 8.21888 17.9714L15.8404 6.68713C16.0621 6.36304 16.4296 6.16861 16.8222 6.16792ZM17.4122 13.1844C18.2909 13.1482 19.1425 13.4925 19.7496 14.1288C20.3567 14.7652 20.6604 15.6317 20.583 16.5077C20.6633 17.3845 20.3614 18.2536 19.7537 18.8906C19.1459 19.5277 18.2917 19.8701 17.4122 19.8311C16.5329 19.8697 15.6801 19.5265 15.0727 18.8896C14.4652 18.2526 14.162 17.3843 14.2423 16.5077C14.165 15.6319 14.4689 14.7651 15.0757 14.1288C15.6825 13.4926 16.5337 13.1486 17.4122 13.1844ZM17.993 15.4834C17.636 15.2687 17.1893 15.2687 16.8323 15.4834C16.4758 15.6982 16.2666 16.092 16.2889 16.5077C16.2612 16.8182 16.3689 17.1255 16.5839 17.3512C16.7989 17.5768 17.1007 17.6992 17.4122 17.6865C17.7238 17.6996 18.0261 17.5778 18.2415 17.3522C18.4568 17.1265 18.5642 16.8185 18.5365 16.5077C18.5587 16.0919 18.3498 15.6981 17.993 15.4834ZM8.58556 6.16792C9.46427 6.13211 10.3162 6.47689 10.923 7.11341C11.5298 7.74995 11.8331 8.6173 11.7554 9.4933C11.8353 10.3696 11.5324 11.2375 10.925 11.8742C10.3176 12.5109 9.4647 12.8543 8.58556 12.8156C7.70655 12.854 6.8533 12.5109 6.24608 11.8742C5.63896 11.2375 5.33687 10.3694 5.41675 9.4933C5.33907 8.61743 5.64246 7.74992 6.24911 7.11341C6.85573 6.47712 7.70714 6.13239 8.58556 6.16792ZM8.58556 8.31345C8.27383 8.30033 7.97161 8.42209 7.75624 8.64781C7.54098 8.87364 7.43341 9.18157 7.46127 9.49229C7.43372 9.80282 7.54105 10.1102 7.75624 10.3358C7.97159 10.5615 8.27385 10.6832 8.58556 10.6701C8.89697 10.6829 9.19879 10.5613 9.41388 10.3358C9.62889 10.1102 9.7364 9.80269 9.70884 9.49229C9.73654 9.18173 9.62899 8.8735 9.41388 8.64781C9.1988 8.42231 8.89693 8.30071 8.58556 8.31345Z" fill="#004BFD"/>
</svg>
