<svg width="26" height="26" viewBox="0 0 26 26" fill="none" xmlns="http://www.w3.org/2000/svg">
<path fill-rule="evenodd" clip-rule="evenodd" d="M13.0001 22.7502C18.3849 22.7502 22.7502 18.3849 22.7502 13.0001C22.7502 7.61531 18.3849 3.25006 13.0001 3.25006C7.61531 3.25006 3.25006 7.61531 3.25006 13.0001C3.25006 18.3849 7.61531 22.7502 13.0001 22.7502ZM10.5162 12.2339C10.0931 11.8109 9.40715 11.8109 8.98408 12.2339C8.56101 12.657 8.56101 13.3429 8.98408 13.766L11.1508 15.9327C11.5738 16.3558 12.2598 16.3558 12.6828 15.9327L17.0162 11.5993C17.4393 11.1763 17.4393 10.4903 17.0162 10.0673C16.5931 9.64419 15.9072 9.64419 15.4841 10.0673L11.9168 13.6346L10.5162 12.2339Z" fill="#C1C7D0"/>
<mask id="mask0_0_299" style="mask-type:luminance" maskUnits="userSpaceOnUse" x="3" y="3" width="20" height="20">
<path fill-rule="evenodd" clip-rule="evenodd" d="M13.0001 22.7502C18.3849 22.7502 22.7502 18.3849 22.7502 13.0001C22.7502 7.61531 18.3849 3.25006 13.0001 3.25006C7.61531 3.25006 3.25006 7.61531 3.25006 13.0001C3.25006 18.3849 7.61531 22.7502 13.0001 22.7502ZM10.5162 12.2339C10.0931 11.8109 9.40715 11.8109 8.98408 12.2339C8.56101 12.657 8.56101 13.3429 8.98408 13.766L11.1508 15.9327C11.5738 16.3558 12.2598 16.3558 12.6828 15.9327L17.0162 11.5993C17.4393 11.1763 17.4393 10.4903 17.0162 10.0673C16.5931 9.64419 15.9072 9.64419 15.4841 10.0673L11.9168 13.6346L10.5162 12.2339Z" fill="white"/>
</mask>
<g mask="url(#mask0_0_299)">
</g>
</svg>
