<svg width="24" height="24" viewBox="0 0 24 24" fill="none" xmlns="http://www.w3.org/2000/svg">
<mask id="mask0_66_3492" style="mask-type:alpha" maskUnits="userSpaceOnUse" x="0" y="0" width="24" height="24">
<rect width="24" height="24" fill="#D9D9D9"/>
</mask>
<g mask="url(#mask0_66_3492)">
<path d="M1.19483 5.56934H20.9718C21.0235 5.56936 21.073 5.58989 21.1096 5.62643C21.1461 5.66296 21.1666 5.7125 21.1667 5.76417V15.9232C21.1666 15.9749 21.1461 16.0244 21.1096 16.0609C21.073 16.0975 21.0235 16.118 20.9718 16.118H1.19488C1.1432 16.118 1.09364 16.0975 1.0571 16.0609C1.02056 16.0244 1.00002 15.9748 1 15.9231V5.76421C1.00002 5.71254 1.02056 5.663 1.05709 5.62647C1.09362 5.58993 1.14317 5.56936 1.19483 5.56934Z" fill="#2AB52D"/>
<path fill-rule="evenodd" clip-rule="evenodd" d="M1.19488 5.56934H1.26653V16.1181H1.19488C1.14324 16.1179 1.09376 16.0974 1.05725 16.0608C1.02073 16.0243 1.00015 15.9749 1 15.9232V5.76421C1.00015 5.71258 1.02073 5.6631 1.05725 5.6266C1.09376 5.59009 1.14324 5.56948 1.19488 5.56934Z" fill="#009903"/>
<path fill-rule="evenodd" clip-rule="evenodd" d="M3.35547 5.56934H18.8112C18.8112 6.87021 19.8658 7.9248 21.1667 7.9248V13.7626C19.8658 13.7626 18.8112 14.8172 18.8112 16.118H3.35547C3.35547 14.8172 2.30087 13.7626 1 13.7626V7.92484C2.30087 7.92484 3.35547 6.87021 3.35547 5.56934Z" fill="#32D736"/>
<path fill-rule="evenodd" clip-rule="evenodd" d="M1.26649 13.7776C1.17801 13.7676 1.08904 13.7625 1 13.7625V7.92477C1.09013 7.92477 1.17903 7.9195 1.26649 7.90967V13.7776Z" fill="#2AB52D"/>
<path fill-rule="evenodd" clip-rule="evenodd" d="M4.19489 6.55713C3.86992 7.60901 3.03967 8.4393 1.98779 8.76423V12.9233C3.03967 13.2483 3.86996 14.0785 4.19489 15.1304H17.9719C18.2968 14.0785 19.1271 13.2482 20.1789 12.9233V8.76423C19.1271 8.43926 18.2968 7.60901 17.9719 6.55713H4.19489Z" fill="#51E854"/>
<path d="M13.3464 13.1092C14.5976 11.858 14.5976 9.82947 13.3464 8.5783C12.0952 7.32713 10.0667 7.32713 8.8155 8.5783C7.56432 9.82948 7.56432 11.858 8.8155 13.1092C10.0667 14.3604 12.0952 14.3604 13.3464 13.1092Z" fill="#7DFF7F"/>
<path fill-rule="evenodd" clip-rule="evenodd" d="M5.9458 10.8343C5.9458 10.7688 5.97182 10.706 6.01813 10.6597C6.06444 10.6134 6.12725 10.5874 6.19274 10.5874C6.25823 10.5874 6.32104 10.6134 6.36735 10.6597C6.41366 10.706 6.43968 10.7688 6.43968 10.8343V10.8533C6.43968 10.9188 6.41366 10.9816 6.36735 11.0279C6.32104 11.0742 6.25823 11.1003 6.19274 11.1003C6.12725 11.1003 6.06444 11.0742 6.01813 11.0279C5.97182 10.9816 5.9458 10.9188 5.9458 10.8533V10.8343ZM15.7269 10.8343C15.7269 10.7688 15.7529 10.706 15.7992 10.6597C15.8456 10.6134 15.9084 10.5874 15.9739 10.5874C16.0394 10.5874 16.1022 10.6134 16.1485 10.6597C16.1948 10.706 16.2208 10.7688 16.2208 10.8343V10.8533C16.2208 10.9188 16.1948 10.9816 16.1485 11.0279C16.1022 11.0742 16.0394 11.1003 15.9739 11.1003C15.9084 11.1003 15.8456 11.0742 15.7992 11.0279C15.7529 10.9816 15.7269 10.9188 15.7269 10.8533V10.8343Z" fill="#2AB52D"/>
<path fill-rule="evenodd" clip-rule="evenodd" d="M10.3704 11.6891C10.3643 11.6572 10.3521 11.6269 10.3343 11.5997C10.3165 11.5726 10.2936 11.5492 10.2668 11.5309C10.2126 11.494 10.1461 11.4802 10.0817 11.4924C10.0173 11.5046 9.96041 11.5418 9.92352 11.596C9.88662 11.6501 9.87274 11.7167 9.88493 11.7811C9.9835 12.3 10.3999 12.5886 10.8366 12.6782V13.0725C10.836 13.1053 10.842 13.1379 10.8541 13.1683C10.8663 13.1988 10.8843 13.2266 10.9073 13.25C10.9303 13.2734 10.9577 13.292 10.988 13.3047C11.0182 13.3174 11.0507 13.3239 11.0835 13.3239C11.1163 13.3239 11.1488 13.3174 11.1791 13.3047C11.2093 13.292 11.2367 13.2734 11.2597 13.25C11.2827 13.2266 11.3008 13.1988 11.3129 13.1683C11.3251 13.1379 11.331 13.1053 11.3304 13.0725V12.6973C11.8022 12.6397 12.1614 12.3668 12.2543 11.9754C12.3344 11.6394 12.3307 11.0272 11.4058 10.7043C11.3811 10.6957 11.3556 10.6879 11.3304 10.6797V9.50346C11.4605 9.53733 11.7368 9.64351 11.7915 9.9386C11.816 10.0728 11.945 10.1613 12.079 10.1365C12.1434 10.1246 12.2005 10.0876 12.2376 10.0336C12.2747 9.97969 12.2889 9.91321 12.2771 9.8488C12.2013 9.44053 11.8866 9.13082 11.435 9.02036C11.4004 9.01193 11.3655 9.00473 11.3304 8.99875V8.61522C11.331 8.58241 11.3251 8.54982 11.3129 8.51934C11.3008 8.48886 11.2827 8.46111 11.2597 8.4377C11.2367 8.41429 11.2093 8.39569 11.1791 8.383C11.1488 8.37031 11.1163 8.36377 11.0835 8.36377C11.0507 8.36377 11.0182 8.37031 10.988 8.383C10.9577 8.39569 10.9303 8.41429 10.9073 8.4377C10.8843 8.46111 10.8663 8.48886 10.8541 8.51934C10.842 8.54982 10.836 8.58241 10.8366 8.61522V8.99912C10.5509 9.04938 10.2975 9.1863 10.1344 9.39513C9.8183 9.79949 9.86271 10.3739 10.2373 10.7309C10.4052 10.8913 10.6233 10.9793 10.8366 11.0467V12.1697C10.6192 12.1021 10.4204 11.9536 10.3704 11.6891ZM11.7742 11.8611C11.7292 12.0487 11.5387 12.1562 11.3305 12.1967V11.2039C11.8767 11.4271 11.803 11.7397 11.7742 11.8611V11.8611ZM10.5782 10.3737C10.3591 10.1651 10.3852 9.87642 10.5239 9.69899C10.5942 9.60882 10.7062 9.54297 10.8367 9.50597V10.5237C10.7341 10.4836 10.6433 10.4359 10.5783 10.3737H10.5782Z" fill="#009903"/>
<path d="M3.02809 7.54395H22.8051C22.8567 7.54397 22.9063 7.5645 22.9428 7.60104C22.9794 7.63757 22.9999 7.68711 22.9999 7.73878V17.8978C22.9999 17.9495 22.9794 17.999 22.9428 18.0355C22.9063 18.0721 22.8567 18.0926 22.8051 18.0926H3.02813C2.97645 18.0926 2.9269 18.0721 2.89035 18.0355C2.85381 17.999 2.83327 17.9494 2.83325 17.8978V7.73882C2.83327 7.68715 2.85381 7.63761 2.89034 7.60108C2.92688 7.56454 2.97642 7.54397 3.02809 7.54395Z" fill="#2AB52D"/>
<path fill-rule="evenodd" clip-rule="evenodd" d="M3.02813 7.54395H3.09978V18.0927H3.02813C2.97649 18.0925 2.92701 18.072 2.8905 18.0355C2.85399 17.9989 2.8334 17.9495 2.83325 17.8978V7.73882C2.8334 7.68719 2.85399 7.63771 2.8905 7.60121C2.92701 7.5647 2.97649 7.54409 3.02813 7.54395Z" fill="#009903"/>
<path fill-rule="evenodd" clip-rule="evenodd" d="M5.18872 7.54395H20.6445C20.6445 8.84482 21.699 9.89941 22.9999 9.89941V15.7372C21.699 15.7372 20.6445 16.7918 20.6445 18.0926H5.18872C5.18872 16.7918 4.13413 15.7372 2.83325 15.7372V9.89945C4.13413 9.89945 5.18872 8.84482 5.18872 7.54395Z" fill="#32D736"/>
<path fill-rule="evenodd" clip-rule="evenodd" d="M3.0995 15.7522C3.01102 15.7422 2.92205 15.7372 2.83301 15.7371V9.89938C2.92314 9.89938 3.01204 9.89411 3.0995 9.88428V15.7522Z" fill="#2AB52D"/>
<path fill-rule="evenodd" clip-rule="evenodd" d="M6.0279 8.53174C5.70293 9.58362 4.87268 10.4139 3.8208 10.7388V14.8979C4.87268 15.2229 5.70297 16.0531 6.0279 17.105H19.8049C20.1298 16.0531 20.9601 15.2228 22.012 14.8979V10.7388C20.9601 10.4139 20.1298 9.58362 19.8049 8.53174H6.0279Z" fill="#51E854"/>
<path d="M15.1796 15.0838C16.4308 13.8326 16.4308 11.8041 15.1796 10.5529C13.9285 9.30174 11.8999 9.30174 10.6487 10.5529C9.39758 11.8041 9.39758 13.8326 10.6487 15.0838C11.8999 16.335 13.9285 16.335 15.1796 15.0838Z" fill="#7DFF7F"/>
<path fill-rule="evenodd" clip-rule="evenodd" d="M7.77905 12.809C7.77905 12.7435 7.80507 12.6806 7.85138 12.6343C7.89769 12.588 7.9605 12.562 8.02599 12.562C8.09148 12.562 8.15429 12.588 8.2006 12.6343C8.24691 12.6806 8.27293 12.7435 8.27293 12.809V12.8279C8.27293 12.8934 8.24691 12.9562 8.2006 13.0025C8.15429 13.0488 8.09148 13.0749 8.02599 13.0749C7.9605 13.0749 7.89769 13.0488 7.85138 13.0025C7.80507 12.9562 7.77905 12.8934 7.77905 12.8279V12.809ZM17.5602 12.809C17.5602 12.7435 17.5862 12.6806 17.6325 12.6343C17.6788 12.588 17.7416 12.562 17.8071 12.562C17.8726 12.562 17.9354 12.588 17.9817 12.6343C18.028 12.6806 18.0541 12.7435 18.0541 12.809V12.8279C18.0541 12.8934 18.028 12.9562 17.9817 13.0025C17.9354 13.0488 17.8726 13.0749 17.8071 13.0749C17.7416 13.0749 17.6788 13.0488 17.6325 13.0025C17.5862 12.9562 17.5602 12.8934 17.5602 12.8279V12.809Z" fill="#2AB52D"/>
<path fill-rule="evenodd" clip-rule="evenodd" d="M12.2036 13.6637C12.1976 13.6318 12.1853 13.6015 12.1676 13.5743C12.1498 13.5472 12.1268 13.5238 12.1 13.5056C12.0459 13.4687 11.9793 13.4548 11.9149 13.467C11.8506 13.4792 11.7937 13.5164 11.7568 13.5706C11.7199 13.6247 11.706 13.6913 11.7182 13.7557C11.8168 14.2746 12.2332 14.5632 12.6699 14.6528V15.0471C12.6693 15.0799 12.6752 15.1125 12.6874 15.1429C12.6995 15.1734 12.7176 15.2012 12.7406 15.2246C12.7636 15.248 12.791 15.2666 12.8212 15.2793C12.8515 15.292 12.884 15.2985 12.9168 15.2985C12.9496 15.2985 12.9821 15.292 13.0123 15.2793C13.0426 15.2666 13.07 15.248 13.093 15.2246C13.116 15.2012 13.1341 15.1734 13.1462 15.1429C13.1583 15.1125 13.1643 15.0799 13.1637 15.0471V14.6719C13.6355 14.6143 13.9946 14.3414 14.0876 13.95C14.1676 13.614 14.1639 13.0018 13.2391 12.6789C13.2143 12.6703 13.1888 12.6625 13.1637 12.6544V11.4781C13.2938 11.5119 13.57 11.6181 13.6248 11.9132C13.6493 12.0474 13.7782 12.1359 13.9123 12.1111C13.9767 12.0992 14.0337 12.0622 14.0708 12.0082C14.108 11.9543 14.1222 11.8878 14.1104 11.8234C14.0346 11.4151 13.7198 11.1054 13.2683 10.995C13.2337 10.9865 13.1988 10.9793 13.1637 10.9734V10.5898C13.1643 10.557 13.1583 10.5244 13.1462 10.494C13.1341 10.4635 13.116 10.4357 13.093 10.4123C13.07 10.3889 13.0426 10.3703 13.0123 10.3576C12.9821 10.3449 12.9496 10.3384 12.9168 10.3384C12.884 10.3384 12.8515 10.3449 12.8212 10.3576C12.791 10.3703 12.7636 10.3889 12.7406 10.4123C12.7176 10.4357 12.6995 10.4635 12.6874 10.494C12.6752 10.5244 12.6693 10.557 12.6699 10.5898V10.9737C12.3841 11.024 12.1307 11.1609 11.9677 11.3697C11.6516 11.7741 11.696 12.3485 12.0705 12.7056C12.2384 12.8659 12.4566 12.9539 12.6699 13.0213V14.1443C12.4525 14.0767 12.2537 13.9282 12.2036 13.6637ZM13.6074 13.8357C13.5624 14.0233 13.3719 14.1308 13.1637 14.1713V13.1785C13.7099 13.4017 13.6363 13.7143 13.6074 13.8357V13.8357ZM12.4115 12.3483C12.1923 12.1397 12.2184 11.851 12.3571 11.6736C12.4275 11.5834 12.5395 11.5176 12.67 11.4806V12.4983C12.5673 12.4582 12.4766 12.4105 12.4115 12.3483H12.4115Z" fill="#009903"/>
</g>
</svg>
