<svg width="48" height="48" viewBox="0 0 48 48" fill="none" xmlns="http://www.w3.org/2000/svg">
<g clip-path="url(#clip0_0_39)">
<path d="M43.6926 33.4922L43.0184 31.8634L35.2648 13.1353C35.1934 12.9631 35.0565 12.8262 34.8843 12.7548L14.5106 4.31755C14.4218 4.28048 14.3262 4.26217 14.2299 4.26377C14.1336 4.26537 14.0387 4.28683 13.9511 4.32683C13.8635 4.36662 13.785 4.42399 13.7205 4.49539C13.6559 4.56678 13.6067 4.65067 13.576 4.74186L12.3124 8.47555L0.14768 44.4161L0.144399 44.4274C-0.187101 45.4085 0.0615236 46.4738 0.794086 47.2064C1.16065 47.5729 1.61018 47.8183 2.09074 47.9303C2.5714 48.0424 3.08318 48.0212 3.57368 47.8554L26.6289 40.0566L27.9056 38.7374L33.7738 37.6396L39.536 35.6905L43.2689 34.4276C43.3601 34.3967 43.4439 34.3474 43.5151 34.2827C43.5864 34.218 43.6436 34.1394 43.6832 34.0517C43.7229 33.964 43.7443 33.8691 43.7459 33.7729C43.7475 33.6767 43.7293 33.5811 43.6926 33.4922Z" fill="#F9D11F"/>
<path d="M43.269 34.4275L39.536 35.6904L33.7739 37.6395L27.9057 38.7373L26.6289 40.0566L3.57364 47.8553C3.08305 48.0211 2.57126 48.0423 2.0907 47.9303C1.61005 47.8182 1.16061 47.573 0.794045 47.2063C0.0614824 46.4737 -0.187049 45.4084 0.144357 44.4273L0.147639 44.416C0.637747 44.8397 1.22994 45.1281 1.86568 45.2528C2.50142 45.3774 3.15868 45.334 3.77248 45.1268L43.0183 31.8633L43.6925 33.4921C43.7292 33.581 43.7473 33.6765 43.7457 33.7727C43.744 33.8689 43.7227 33.9638 43.6831 34.0514C43.6434 34.1391 43.5862 34.2176 43.515 34.2823C43.4437 34.347 43.36 34.3964 43.269 34.4275Z" fill="#FFA402"/>
<path d="M43.269 34.4276L39.5361 35.6905C39.3438 34.8743 39.1174 34.0666 38.8572 33.2694C37.4399 28.9232 34.6589 23.6932 29.3761 18.409C23.0663 12.1031 17.0815 9.6118 12.3389 8.50077L12.3124 8.47555L13.5759 4.74186C13.6067 4.65068 13.6559 4.5668 13.7205 4.49541C13.785 4.42401 13.8635 4.36664 13.9511 4.32683C14.0387 4.28683 14.1336 4.26537 14.2299 4.26377C14.3262 4.26217 14.4218 4.28048 14.5106 4.31755L34.8843 12.7548C35.0565 12.8262 35.1934 12.9631 35.2648 13.1353L43.0184 31.8634L43.6926 33.4922C43.7293 33.5811 43.7475 33.6767 43.7459 33.7729C43.7443 33.8691 43.723 33.964 43.6833 34.0517C43.6437 34.1394 43.5865 34.218 43.5152 34.2827C43.4439 34.3474 43.3601 34.3967 43.269 34.4276Z" fill="#FDEDA5"/>
<path d="M43.269 34.4275L39.536 35.6904C39.3438 34.8742 39.1173 34.0665 38.8572 33.2693L43.0184 31.8633L43.6925 33.4921C43.7293 33.581 43.7474 33.6766 43.7458 33.7728C43.7442 33.869 43.7229 33.9639 43.6832 34.0516C43.6436 34.1393 43.5864 34.2179 43.5152 34.2826C43.4439 34.3473 43.3601 34.3966 43.269 34.4275Z" fill="#FBDF63"/>
<path d="M47.9392 32.7588C46.8945 27.7788 43.9577 20.151 35.9012 12.0943C27.8434 4.04025 20.2145 1.10485 15.2332 0.0600018C13.7689 -0.246936 12.3263 0.653345 11.9465 2.08331C11.9339 2.13169 11.9224 2.18033 11.912 2.22919C11.7575 2.96306 11.8987 3.71156 12.3091 4.33931C12.4155 4.50316 12.5388 4.65537 12.677 4.79344C13.0582 5.17463 13.5414 5.43778 14.0811 5.55056C18.3172 6.43894 24.8523 8.98322 31.9343 16.0614C39.0137 23.1423 41.5594 29.6762 42.4483 33.9104C42.559 34.443 42.8231 34.9315 43.2081 35.3158L43.2087 35.3165C43.8816 35.9893 44.8395 36.2751 45.7696 36.0795C45.8188 36.0692 45.8676 36.0575 45.9161 36.0443C46.587 35.8667 47.1605 35.4536 47.5423 34.8689C47.9526 34.2412 48.0931 33.492 47.9392 32.7588Z" fill="#F79E60"/>
<path d="M47.9393 32.7588C46.8946 27.7788 43.9578 20.151 35.9013 12.0943C27.8434 4.04025 20.2145 1.10485 15.2333 0.0600018C13.7689 -0.246936 12.3264 0.653346 11.9465 2.08331C12.3704 1.96981 12.8152 1.95799 13.2445 2.04881C18.2257 3.09366 25.8546 6.02906 33.9125 14.0831C41.969 22.1398 44.9058 29.7676 45.9506 34.7476C46.0421 35.1838 46.0295 35.626 45.9161 36.0443C46.587 35.8667 47.1604 35.4536 47.5423 34.8689C47.9526 34.2412 48.0932 33.492 47.9393 32.7588Z" fill="#D77D41"/>
<path d="M22.2606 18.6235C22.2605 17.4411 21.8001 16.3295 20.964 15.4932L20.9636 15.4928C19.237 13.7667 16.4277 13.7667 14.7012 15.4928C13.8647 16.3291 13.4041 17.4409 13.4041 18.6236C13.4041 19.8061 13.8646 20.9177 14.7008 21.7539C14.701 21.7541 14.7011 21.7542 14.7012 21.7544C16.4278 23.4805 19.2371 23.4805 20.9636 21.7544C21.7999 20.9181 22.2605 19.8062 22.2606 18.6235ZM18.5797 29.4133L18.5794 29.413C16.8528 27.6869 14.0435 27.6869 12.317 29.413C11.4806 30.2493 11.0199 31.3611 11.0199 32.5438C11.0199 33.7263 11.4804 34.8379 12.3166 35.6741C12.3167 35.6743 12.3168 35.6744 12.317 35.6745C14.0436 37.4006 16.8529 37.4006 18.5794 35.6745C19.4159 34.8382 19.8765 33.7265 19.8765 32.5437C19.8765 31.3612 19.416 30.2496 18.5797 29.4133ZM33.7746 37.6402L26.6236 40.0407L26.3154 39.7325C25.7904 39.2074 25.4138 38.5736 25.2057 37.8829C25.0812 37.4673 25.0182 37.0358 25.0187 36.6021C25.0187 35.4194 25.4794 34.3076 26.3154 33.4716C27.1792 32.6091 28.3135 32.1776 29.447 32.1776C30.5806 32.1776 31.7149 32.6091 32.578 33.4723C33.0347 33.9291 33.3781 34.4647 33.5969 35.0467C33.8514 35.7243 33.9362 36.4627 33.8335 37.2086L33.7746 37.6402Z" fill="#ED2061"/>
<path d="M33.7746 37.6403L26.6237 40.0408L26.3154 39.7325C25.7904 39.2074 25.4138 38.5737 25.2057 37.8829L33.597 35.0469C33.8515 35.7244 33.9363 36.4629 33.8336 37.2087L33.7746 37.6403Z" fill="#C71E54"/>
<path d="M10.5939 38.0149C10.5722 37.8649 10.5025 37.726 10.3954 37.6188C10.2882 37.5116 10.1492 37.442 9.99926 37.4203C9.94376 37.4122 9.43844 37.3432 8.79354 37.4036C7.86944 37.49 7.10988 37.8068 6.59679 38.3197C6.08369 38.8327 5.76672 39.5923 5.68029 40.5163C5.61991 41.1612 5.68901 41.6663 5.69707 41.7218C5.71938 41.8758 5.7911 42.0133 5.89563 42.1179C6.00016 42.2225 6.13769 42.2941 6.29172 42.3165C6.34713 42.3246 6.85244 42.3935 7.49744 42.3331C8.42154 42.2467 9.1811 41.9299 9.69419 41.417C10.2073 40.904 10.5243 40.1445 10.6107 39.2205C10.671 38.5755 10.602 38.0704 10.5939 38.0149ZM26.7876 30.3974C26.8082 30.3451 26.9906 29.869 27.0789 29.2274C27.2056 28.308 27.0702 27.4962 26.6877 26.8798C26.3051 26.2632 25.6378 25.7816 24.7577 25.4868C24.1434 25.281 23.6358 25.233 23.58 25.2282C23.429 25.2152 23.2778 25.2513 23.149 25.3313C23.0203 25.4112 22.9207 25.5305 22.8653 25.6716C22.8448 25.7237 22.6624 26.1999 22.574 26.8415C22.4475 27.7608 22.5828 28.5726 22.9653 29.1891C23.0754 29.3655 23.2055 29.5285 23.353 29.675C23.7391 30.0611 24.2621 30.37 24.8952 30.582C25.5094 30.7879 26.0171 30.8359 26.0729 30.8407C26.2239 30.8537 26.3751 30.8176 26.5039 30.7377C26.6327 30.6578 26.7322 30.5384 26.7876 30.3974Z" fill="#68C044"/>
<path d="M13.9786 25.4331L12.9058 23.7607C12.8051 23.6037 12.6462 23.4932 12.464 23.4534C12.2818 23.4136 12.0913 23.4478 11.9343 23.5485C11.7774 23.6491 11.6668 23.8081 11.627 23.9903C11.5872 24.1724 11.6215 24.363 11.7221 24.5199L12.7949 26.1924C12.8229 26.2359 12.8547 26.2754 12.8899 26.3106C13.0127 26.4329 13.1763 26.5056 13.3493 26.5148C13.5224 26.5239 13.6928 26.4688 13.8277 26.36C13.9627 26.2513 14.0527 26.0965 14.0806 25.9254C14.1084 25.7543 14.0721 25.579 13.9786 25.4331ZM28.9816 23.5723L27.4726 22.2795C27.331 22.1582 27.147 22.0981 26.9611 22.1124C26.7751 22.1268 26.6025 22.2144 26.4812 22.356C26.3599 22.4976 26.2998 22.6816 26.3141 22.8676C26.3285 23.0535 26.4161 23.2261 26.5577 23.3474L28.0667 24.6402C28.2083 24.7615 28.3923 24.8216 28.5782 24.8073C28.7642 24.793 28.9368 24.7053 29.0581 24.5637C29.3109 24.2689 29.2772 23.8237 28.9816 23.5723ZM22.7428 37.0468L22.932 35.2343C22.9474 35.0508 22.8903 34.8687 22.7729 34.7269C22.6555 34.5852 22.4872 34.4951 22.3041 34.476C22.121 34.4569 21.9378 34.5103 21.7937 34.6248C21.6496 34.7393 21.5561 34.9057 21.5333 35.0884L21.3441 36.9009C21.3331 37.0051 21.3456 37.1104 21.3807 37.2091C21.4157 37.3078 21.4724 37.3975 21.5466 37.4714C21.6405 37.5653 21.7592 37.6306 21.8887 37.6598C22.0183 37.6891 22.1535 37.681 22.2787 37.6366C22.4038 37.5922 22.5139 37.5132 22.596 37.4088C22.6782 37.3044 22.7291 37.1789 22.7428 37.0468Z" fill="#FDEDA5"/>
</g>
<defs>
<clipPath id="clip0_0_39">
<rect width="48" height="48" fill="white"/>
</clipPath>
</defs>
</svg>
