<svg width="35" height="35" viewBox="0 0 35 35" fill="none" xmlns="http://www.w3.org/2000/svg">
<path fill-rule="evenodd" clip-rule="evenodd" d="M8.52396 24.7169V23.2499C8.57941 22.1605 9.23424 21.1918 10.2244 20.7342C14.8935 18.8588 20.1065 18.8588 24.7756 20.7342C25.7658 21.1918 26.4206 22.1605 26.476 23.2499V24.7169C26.4757 25.5111 26.1596 26.2726 25.5975 26.8336C25.0354 27.3946 24.2733 27.7092 23.4792 27.708H11.5208C10.7267 27.7092 9.96461 27.3946 9.4025 26.8336C8.84039 26.2726 8.52434 25.5111 8.52396 24.7169Z" fill="#C1C7D0"/>
<path fill-rule="evenodd" clip-rule="evenodd" d="M17.5 7.2915C15.4826 7.29091 13.6635 8.50571 12.8911 10.3694C12.1187 12.233 12.545 14.3785 13.9713 15.8052C15.3976 17.2319 17.543 17.6589 19.4068 16.887C21.2707 16.1151 22.486 14.2964 22.486 12.279C22.4864 10.9564 21.9613 9.68778 21.0262 8.7524C20.0911 7.81702 18.8226 7.2915 17.5 7.2915Z" fill="#C1C7D0"/>
</svg>
