<svg width="26" height="26" viewBox="0 0 26 26" fill="none" xmlns="http://www.w3.org/2000/svg">
<path fill-rule="evenodd" clip-rule="evenodd" d="M12.9999 5.41689C8.8118 5.41689 5.41664 8.81205 5.41664 13.0002C5.41664 17.1883 8.8118 20.5835 12.9999 20.5835C17.1881 20.5835 20.5832 17.1883 20.5832 13.0002C20.5832 10.989 19.7843 9.06013 18.3621 7.63799C16.94 6.21584 15.0112 5.41689 12.9999 5.41689ZM15.9877 14.1082H14.0745V16.0202C14.0745 16.6138 13.5934 17.0949 12.9999 17.0949C12.4063 17.0949 11.9252 16.6138 11.9252 16.0202V14.1082H10.012C9.4315 14.0897 8.97042 13.6138 8.97042 13.033C8.97042 12.4521 9.4315 11.9762 10.012 11.9578H11.9252V10.0457C11.9252 9.45216 12.4063 8.97102 12.9999 8.97102C13.5934 8.97102 14.0745 9.45216 14.0745 10.0457V11.9578H15.9877C16.5682 11.9762 17.0293 12.4521 17.0293 13.033C17.0293 13.6138 16.5682 14.0897 15.9877 14.1082Z" fill="#004BFD"/>
</svg>
