<svg width="15" height="15" viewBox="0 0 15 15" fill="none" xmlns="http://www.w3.org/2000/svg">
<path d="M4.99994 8.74992C3.12495 8.74992 2.49996 9.37491 2.49996 9.37491V1.87497C2.49996 1.87497 3.12495 1.24998 4.99994 1.24998C6.87492 1.24998 8.12491 2.49997 9.9999 2.49997C11.8749 2.49997 12.4999 1.87497 12.4999 1.87497V9.37491C12.4999 9.37491 11.8749 9.99991 9.9999 9.99991C8.12491 9.99991 6.87492 8.74992 4.99994 8.74992Z" fill="#C1C7D0"/>
<path d="M2.49996 9.37491C2.49996 9.37491 3.12495 8.74992 4.99994 8.74992C6.87492 8.74992 8.12491 9.99991 9.9999 9.99991C11.8749 9.99991 12.4999 9.37491 12.4999 9.37491V1.87497C12.4999 1.87497 11.8749 2.49997 9.9999 2.49997C8.12491 2.49997 6.87492 1.24998 4.99994 1.24998C3.12495 1.24998 2.49996 1.87497 2.49996 1.87497L2.49996 13.7499" stroke="#C1C7D0" stroke-width="1.048" stroke-linecap="round" stroke-linejoin="round"/>
</svg>
